<svg id="web_y_app" data-name="web y app" xmlns="http://www.w3.org/2000/svg" width="158.689" height="125.313" viewBox="0 0 158.689 125.313">
  <g id="Grupo_101" data-name="Grupo 101">
    <path id="Trazado_227" data-name="Trazado 227" d="M1763.3,3218.928h-28.566v-29.293a2.711,2.711,0,0,0-2.694-2.721H1615.209a2.712,2.712,0,0,0-2.7,2.721v93.188a2.712,2.712,0,0,0,2.7,2.721h55.46v14.675h-9.683a5.462,5.462,0,0,0-5.443,5.481h36.164a5.46,5.46,0,0,0-5.435-5.481h-9.691v-14.675H1717.8v18.724a7.939,7.939,0,0,0,7.9,7.958H1763.3a7.932,7.932,0,0,0,7.9-7.958v-77.39A7.926,7.926,0,0,0,1763.3,3218.928Zm-45.5,62.684H1616.411v-17.576H1717.8Zm0-54.733V3260.1H1616.411v-69.258H1730.83v28.083h-5.123A7.933,7.933,0,0,0,1717.8,3226.879Zm7.9,81.416a4.02,4.02,0,0,1-4-4.026v-1.188H1740.2a.394.394,0,0,0-.016.134v4.853a.56.56,0,0,0,.039.227Zm41.583-4.026a4.014,4.014,0,0,1-3.99,4.026h-13.424a.562.562,0,0,0,.039-.227v-4.853a.391.391,0,0,0-.016-.134h17.391Zm0-5.119h-45.582v-72.271a4.014,4.014,0,0,1,4-4.019h4.123l1,1.628,1.445,2.352a.642.642,0,0,0,.547.314h24.56a.661.661,0,0,0,.633-.378l1.866-3.916h3.42a4.007,4.007,0,0,1,3.99,4.019Z" transform="translate(-1612.507 -3186.914)" fill="#fff"/>
  </g>
  <g id="Grupo_102" data-name="Grupo 102" transform="translate(107.524 114.201)">
    <line id="Línea_60" data-name="Línea 60" x1="1.687" transform="translate(47.261)" fill="none"/>
    <line id="Línea_61" data-name="Línea 61" x1="1.679" fill="none"/>
  </g>
</svg>
