<svg xmlns="http://www.w3.org/2000/svg" width="108.155" height="114.968" viewBox="0 0 108.155 114.968">
  <path id="Trazado_231" data-name="Trazado 231" d="M2116.124,2913.59v-.232l-44.207-86.916-41.987,82.193c-.362-.567-.748-1.109-1.084-1.677a42.706,42.706,0,0,1-6.761-23.045c0-21.7,16.31-39.793,38.039-44.1l6.271-12.233c-31.407,1.858-56.258,26.323-56.258,56.336a53.931,53.931,0,0,0,12.9,34.735c.386.464.8.955,1.238,1.419l-10.89,21.342h13.5l6.478-13.084c.671.49,1.316.981,2.013,1.419a63.432,63.432,0,0,0,70.245-.077,58.288,58.288,0,0,0,12.671-11.716Zm-15.665,5.522a50.529,50.529,0,0,1-60,.181c-.645-.49-1.316-1.006-1.936-1.548l33.548-67.484,19.613,37.419h-29.5v9.161h34.091l9.342,17.7A40.223,40.223,0,0,1,2100.459,2919.112Z" transform="translate(-2010.137 -2826.442)" fill="#fff"/>
</svg>
