<svg xmlns="http://www.w3.org/2000/svg" width="21.247" height="16.691" viewBox="0 0 21.247 16.691"><path d="M522.391,262.682H507.279a3.071,3.071,0,0,0-3.067,3.067v10.556a3.071,3.071,0,0,0,3.067,3.068h15.112a3.071,3.071,0,0,0,3.068-3.068V265.749A3.071,3.071,0,0,0,522.391,262.682Zm0,1.466a1.6,1.6,0,0,1,.365.044l-6.376,7.234a2.06,2.06,0,0,1-3.089,0l-6.376-7.234a1.6,1.6,0,0,1,.364-.044Zm1.6,12.157a1.6,1.6,0,0,1-1.6,1.6H507.279a1.6,1.6,0,0,1-1.6-1.6V265.749a1.6,1.6,0,0,1,.12-.607l6.392,7.253a3.526,3.526,0,0,0,5.29,0l6.392-7.253a1.588,1.588,0,0,1,.12.607Z" transform="translate(-504.212 -262.682)" fill="#fff"/></svg>