<svg id="Valoracion-icon" xmlns="http://www.w3.org/2000/svg" width="60.834" height="75.432" viewBox="0 0 60.834 75.432">
  <path id="Trazado_116" data-name="Trazado 116" d="M549.157,131.983a20.159,20.159,0,1,0-21.7,0,30.463,30.463,0,0,0-19.564,28.408,9.915,9.915,0,0,0,9.9,9.9h41.03a9.914,9.914,0,0,0,9.9-9.9A30.462,30.462,0,0,0,549.157,131.983Zm-25.8-16.962a14.953,14.953,0,1,1,14.953,14.953A14.97,14.97,0,0,1,523.353,115.021Zm35.468,50.066h-41.03a4.7,4.7,0,0,1-4.7-4.7,25.211,25.211,0,0,1,50.422,0A4.7,4.7,0,0,1,558.821,165.087Z" transform="translate(-507.889 -94.861)"/>
</svg>
