<svg id="instagram" xmlns="http://www.w3.org/2000/svg" width="39.697" height="39.699" viewBox="0 0 39.697 39.699">
  <defs>
    <style>
      .cls-1 {
        fill: #00a263;
      }
    </style>
  </defs>
  <g id="Grupo_26" data-name="Grupo 26">
    <path id="Trazado_97" data-name="Trazado 97" class="cls-1" d="M834.328,475.617a2.327,2.327,0,1,0,2.327,2.327A2.326,2.326,0,0,0,834.328,475.617Z" transform="translate(-803.969 -468.528)"/>
    <path id="Trazado_98" data-name="Trazado 98" class="cls-1" d="M832.478,477.176a9.776,9.776,0,1,0,9.778,9.776A9.788,9.788,0,0,0,832.478,477.176Zm0,16.038a6.262,6.262,0,1,1,6.262-6.262A6.268,6.268,0,0,1,832.478,493.214Z" transform="translate(-812.467 -467.104)"/>
    <path id="Trazado_99" data-name="Trazado 99" class="cls-1" d="M845.128,511.612H829.277a11.938,11.938,0,0,1-11.923-11.925V483.838a11.938,11.938,0,0,1,11.923-11.925h15.851a11.938,11.938,0,0,1,11.923,11.925v15.848A11.938,11.938,0,0,1,845.128,511.612Zm-15.851-35.963a8.2,8.2,0,0,0-8.189,8.189v15.848a8.2,8.2,0,0,0,8.189,8.189h15.851a8.2,8.2,0,0,0,8.189-8.189V483.838a8.2,8.2,0,0,0-8.189-8.189Z" transform="translate(-817.354 -471.913)"/>
  </g>
</svg>
