<?xml version="1.0" encoding="utf-8"?>
<!-- Generator: Adobe Illustrator 24.1.0, SVG Export Plug-In . SVG Version: 6.00 Build 0)  -->
<svg version="1.1" id="Capa_1" xmlns="http://www.w3.org/2000/svg" xmlns:xlink="http://www.w3.org/1999/xlink" x="0px" y="0px"
	 viewBox="0 0 77 77" style="enable-background:new 0 0 77 77;" xml:space="preserve">
<style type="text/css">
	.st0{fill:#FFFFFF;}
	.st1{fill:#00A263;}
</style>
<circle class="st0" cx="38.5" cy="38.5" r="38.5"/>
<g id="Enmascarar_grupo_2" transform="translate(-63 -43)">
	<g id="Grupo_117" transform="translate(81 44)">
		<g id="Grupo_69" transform="translate(3.444 40.608)">
			<path id="Trazado_142" class="st1" d="M24.2,20.1C14.6,17.7,7.5,9.6,6.3-0.2l1.6-0.2C9,8.7,15.7,16.3,24.6,18.5L24.2,20.1z"/>
		</g>
		<g id="Grupo_70" transform="translate(3.444 10.572)">
			<path id="Trazado_143" class="st1" d="M7.9,24.3l-1.6-0.2c1.2-9.8,8.3-17.9,17.9-20.3l0.4,1.6C15.7,7.6,9,15.1,7.9,24.3z"/>
		</g>
		<g id="Grupo_71" transform="translate(23.555 6.989)">
			<path id="Trazado_144" class="st1" d="M9.3,11.5H4.9c-0.8,0-1.4-0.6-1.4-1.4V5.7c0-0.8,0.6-1.4,1.4-1.4h4.3
				c0.8,0,1.4,0.6,1.4,1.4V10C10.7,10.8,10,11.5,9.3,11.5z M5.1,9.9h4v-4h-4C5.1,5.9,5.1,9.9,5.1,9.9z"/>
		</g>
		<g id="Grupo_72" transform="translate(23.555 59.642)">
			<path id="Trazado_145" class="st1" d="M9.3,4.1H4.9c-0.8,0-1.4-0.6-1.4-1.4v-4.4c0-0.7,0.6-1.4,1.4-1.4h4.3
				c0.8,0,1.4,0.6,1.4,1.4v4.3C10.7,3.5,10,4.1,9.3,4.1L9.3,4.1z M5.1,2.5h4v-4h-4C5.1-1.5,5.1,2.5,5.1,2.5z"/>
		</g>
		<g id="Grupo_73" transform="translate(0 33.315)">
			<path id="Trazado_146" class="st1" d="M12.6,7.8H8.2c-0.8,0-1.4-0.6-1.4-1.4V2c0-0.8,0.6-1.4,1.4-1.4h4.3c0.8,0,1.4,0.6,1.4,1.4
				v4.3C14,7.2,13.3,7.8,12.6,7.8z M8.4,6.2h3.9v-4H8.4V6.2z"/>
		</g>
		<g id="Grupo_74" transform="translate(3.233 5.991)">
			<path id="Trazado_147" class="st1" d="M7.1,29.6c-0.4,0-0.8-0.4-0.8-0.8l0,0V5.2c0-0.4,0.4-0.8,0.8-0.8s0.8,0.4,0.8,0.8v23.5
				C8,29.2,7.6,29.6,7.1,29.6L7.1,29.6z"/>
		</g>
		<g id="Grupo_75" transform="translate(3.233 39.781)">
			<path id="Trazado_148" class="st1" d="M7.1,24.9c-0.4,0-0.8-0.4-0.8-0.8l0,0V0.5c0-0.4,0.4-0.8,0.8-0.8s0.8,0.4,0.8,0.8V24
				C8,24.5,7.6,24.9,7.1,24.9L7.1,24.9z"/>
		</g>
		<g id="Grupo_76" transform="translate(0.31)">
			<path id="Trazado_149" class="st1" d="M10.1,11.9c-1.8,0-3.3-1.5-3.3-3.3s1.5-3.3,3.3-3.3s3.3,1.5,3.3,3.3S11.9,11.9,10.1,11.9z
				 M10.1,6.9c-1,0-1.7,0.7-1.7,1.7c0,0.9,0.8,1.7,1.7,1.7s1.7-0.8,1.7-1.7C11.8,7.6,11,6.9,10.1,6.9z"/>
		</g>
		<g id="Grupo_77" transform="translate(0.31 67.28)">
			<path id="Trazado_150" class="st1" d="M10.1,2.5C8.3,2.5,6.8,1,6.8-0.8s1.4-3.3,3.3-3.3c1.8,0,3.3,1.5,3.3,3.3S11.9,2.5,10.1,2.5
				z M10.1-2.5c-0.9,0-1.7,0.8-1.7,1.7s0.7,1.7,1.7,1.7c0.9,0,1.7-0.8,1.7-1.7S11-2.5,10.1-2.5z"/>
		</g>
		<g id="Grupo_78" transform="translate(11.775 23.683)">
			<path id="Trazado_151" class="st1" d="M10.3,20.3c-0.8,0-1.6-0.3-2.1-0.9L6,17.2c-1.2-1.2-1.2-3.1,0-4.3L16.2,2.8
				c1.2-1.2,3.1-1.2,4.3,0L22.7,5c1.2,1.2,1.2,3.1,0,4.3l0,0L12.4,19.4C11.9,20,11.1,20.3,10.3,20.3z M18.3,3.6
				c-0.4,0-0.7,0.1-1,0.4L7.2,14.1c-0.5,0.5-0.5,1.4,0,2l2.2,2.2c0.6,0.5,1.4,0.5,2,0l10-10.2c0.5-0.5,0.5-1.4,0-2l-2.2-2.2
				C19,3.7,18.7,3.6,18.3,3.6L18.3,3.6z M22,8.7L22,8.7z"/>
		</g>
		<g id="Grupo_79" transform="translate(22.785 34.692)">
			<path id="Trazado_152" class="st1" d="M15.9,15.7c-0.8,0-1.5-0.3-2.1-0.9l-10-9.9C3.5,4.5,3.5,4,3.8,3.7l3.1-3.1
				c0.2-0.2,0.4-0.2,0.6-0.2l0,0c0.2,0,0.4,0.1,0.6,0.2l10,10c1.2,1.2,1.2,3,0,4.2C17.5,15.4,16.7,15.7,15.9,15.7L15.9,15.7z
				 M5.6,4.3l9.4,9.4l0,0c0.5,0.5,1.4,0.5,1.9,0s0.5-1.4,0-1.9L7.5,2.4L5.6,4.3z"/>
		</g>
	</g>
</g>
</svg>
