<svg id="marca" xmlns="http://www.w3.org/2000/svg" viewBox="0 0 263.41 75"><defs><style>.cls-1{fill:#fff;}</style></defs><g id="logotipo"><path id="K-2" class="cls-1" d="M75.72,29.86h-8l-9.12,9a2.71,2.71,0,0,0-.82,1.88v.56a2.07,2.07,0,0,0,.22,1,4.69,4.69,0,0,0,.63.9l9.44,9.69h8.16L64.61,41Z" transform="translate(0 0)"/><rect id="K" class="cls-1" x="50.24" y="29.86" width="6.21" height="23.07"/><path id="E" class="cls-1" d="M88.81,42.36H83.74v3.23h6.31q3.09,0,4.44-1.17a4.41,4.41,0,0,0,1.35-3.52,7.13,7.13,0,0,0-.37-2.29,4.77,4.77,0,0,0-1.14-1.79,5.35,5.35,0,0,0-1.9-1.17,7.81,7.81,0,0,0-2.66-.43H85.26a11.19,11.19,0,0,0-3.8.64,9.21,9.21,0,0,0-3,1.81,8.22,8.22,0,0,0-2,2.8,9.45,9.45,0,0,0,0,7.2,8,8,0,0,0,2,2.8,9,9,0,0,0,3,1.81,10.73,10.73,0,0,0,3.8.64h9.61V48.07H85.22a3.46,3.46,0,0,1-2.59-1,4.15,4.15,0,0,1-1-3,4.48,4.48,0,0,1,1-3.12,3.36,3.36,0,0,1,2.59-1.1h3.63a.91.91,0,0,1,.33,0,1.16,1.16,0,0,1,1,1.31C90.19,41.94,89.73,42.36,88.81,42.36Z" transform="translate(0 0)"/><path id="I-punto" class="cls-1" d="M102,28.37h-.82a2.73,2.73,0,0,0-1.93.69,2.33,2.33,0,0,0-.76,1.83,2.41,2.41,0,0,0,.76,1.89,2.74,2.74,0,0,0,1.93.7H102a2.7,2.7,0,0,0,1.91-.7,2.4,2.4,0,0,0,.75-1.89,2.35,2.35,0,0,0-.75-1.83A2.69,2.69,0,0,0,102,28.37Z" transform="translate(0 0)"/><rect id="I" class="cls-1" x="98.6" y="35.21" width="5.93" height="17.71"/><path id="G" class="cls-1" d="M120.49,35.21h-3.23a14,14,0,0,0-4.06.55,8.78,8.78,0,0,0-3.12,1.62,7.26,7.26,0,0,0-2,2.6,8.12,8.12,0,0,0-.72,3.53,7.33,7.33,0,0,0,2.4,5.77c1.59,1.43,3.93,2.15,7,2.15a19.89,19.89,0,0,0,2.31-.14,19,19,0,0,0,2.13-.39V46.07a17.37,17.37,0,0,1-1.92.25c-.64,0-1.23.07-1.77.07a6.55,6.55,0,0,1-3.12-.6,2.26,2.26,0,0,1-1.1-2.2,2.5,2.5,0,0,1,1-2.25,4.53,4.53,0,0,1,2.61-.69h3c2,0,3,.83,3,2.51v7.17a3.64,3.64,0,0,1-.77,2.54,3.56,3.56,0,0,1-2.71.83H115v5.4h4.43q5,0,7.2-2.14c1.49-1.44,2.24-3.63,2.24-6.59v-6.7a8.54,8.54,0,0,0-2.18-6.27A8.37,8.37,0,0,0,120.49,35.21Z" transform="translate(0 0)"/><path id="O" class="cls-1" d="M150.23,37.67a9.07,9.07,0,0,0-3-1.81,11.19,11.19,0,0,0-3.8-.64h-2.49a11.19,11.19,0,0,0-3.8.64,9.17,9.17,0,0,0-3,1.81,8.38,8.38,0,0,0-2,2.8,9.54,9.54,0,0,0,0,7.2,8.19,8.19,0,0,0,2,2.8,9,9,0,0,0,3,1.81,10.73,10.73,0,0,0,3.8.64h2.49a10.73,10.73,0,0,0,3.8-.64,8.9,8.9,0,0,0,3-1.81,8.05,8.05,0,0,0,2-2.8,9.54,9.54,0,0,0,0-7.2A8.24,8.24,0,0,0,150.23,37.67ZM146,46.57a3.6,3.6,0,0,1-2.57,1H140.9a3.59,3.59,0,0,1-2.59-1,3.34,3.34,0,0,1-1-2.52,3.28,3.28,0,0,1,1-2.5,3.61,3.61,0,0,1,2.59-.94h2.52a3.69,3.69,0,0,1,2.57.94,3.27,3.27,0,0,1,1,2.5A3.31,3.31,0,0,1,146,46.57Z" transform="translate(0 0)"/><path id="B" class="cls-1" d="M167.47,35a21.2,21.2,0,0,0-2.25.12,14.07,14.07,0,0,0-2,.37v5.36c.62-.14,1.24-.26,1.88-.35a11.76,11.76,0,0,1,1.78-.14,5.51,5.51,0,0,1,3.17.76,3,3,0,0,1,1.12,2.71,3.48,3.48,0,0,1-1,2.79,3.86,3.86,0,0,1-2.61.87h-3q-3.09,0-3.09-3.05V28.05h-5.92V44.48a8.35,8.35,0,0,0,2.21,6.26q2.22,2.17,6.66,2.18h3.12a11.54,11.54,0,0,0,3.82-.62,8.63,8.63,0,0,0,3-1.79,8,8,0,0,0,2-2.89,10.31,10.31,0,0,0,.71-3.92,8.39,8.39,0,0,0-2.42-6.32C173,35.82,170.65,35,167.47,35Z" transform="translate(0 0)"/><path id="R" class="cls-1" d="M181.85,37.42a8.32,8.32,0,0,0-2.24,6.24v9.26h5.93v-9.3c0-2,1-3,3.05-3h4.82V35.22h-5Q184.08,35.22,181.85,37.42Z" transform="translate(0 0)"/><path id="A" class="cls-1" d="M206.12,35.21h-9.94v5h9.87q3.07,0,3.08,3v5.11h-7.36a1.11,1.11,0,0,1-.94-1.24c0-.83.44-1.24,1.31-1.24h5.25V42.45h-6.6a5.52,5.52,0,0,0-4.18,1.46,5.84,5.84,0,0,0,0,7.56,5.51,5.51,0,0,0,4.18,1.45H215V43.66a8.4,8.4,0,0,0-2.2-6.26C211.29,35.94,209.07,35.21,206.12,35.21Z" transform="translate(0 0)"/><path id="N" class="cls-1" d="M230.46,35.21h-12V52.92h6V40.61h5.93c2.06,0,3.08,1,3.08,3v9.3h5.93V43.66a8.39,8.39,0,0,0-2.23-6.25C235.6,36,233.39,35.21,230.46,35.21Z" transform="translate(0 0)"/><path id="D" class="cls-1" d="M263.39,44.48V28.05h-5.93V44.47c0,2-1,3.05-3.08,3.05h-3a3.65,3.65,0,0,1-2.59-.9,3.51,3.51,0,0,1-1-2.75,3.07,3.07,0,0,1,1.12-2.71,5.49,5.49,0,0,1,3.14-.76,11.86,11.86,0,0,1,1.78.14c.63.09,1.26.21,1.88.35V35.54a14.35,14.35,0,0,0-2-.38,21.39,21.39,0,0,0-2.26-.12c-3.16,0-5.55.78-7.15,2.34a8.48,8.48,0,0,0-2.4,6.32,10.31,10.31,0,0,0,.71,3.92,8,8,0,0,0,2,2.89,8.8,8.8,0,0,0,3,1.79,10.9,10.9,0,0,0,3.8.62h3.12c3,0,5.17-.72,6.65-2.18A8.4,8.4,0,0,0,263.39,44.48Z" transform="translate(0 0)"/></g><g id="isotipo"><path id="Vector" class="cls-1" d="M30.25,59.64H25.2a1.66,1.66,0,0,0-1.65,1.64v1A25.91,25.91,0,0,1,5.47,41.65H6.7A1.64,1.64,0,0,0,8.34,40V35A1.65,1.65,0,0,0,6.7,33.31H5.47A25.91,25.91,0,0,1,23.55,12.73v.95a1.66,1.66,0,0,0,1.65,1.65h5.05a1.64,1.64,0,0,0,1.64-1.65v-5A1.63,1.63,0,0,0,30.25,7H25.2a1.66,1.66,0,0,0-1.65,1.64v2.15A27.75,27.75,0,0,0,5.11,27.54V7.59a3.86,3.86,0,1,0-1.88,0V33.31H1.64A1.65,1.65,0,0,0,0,35v5a1.64,1.64,0,0,0,1.64,1.64H3.23V67.41a3.86,3.86,0,1,0,1.88,0v-20A27.75,27.75,0,0,0,23.55,64.19v2.15A1.65,1.65,0,0,0,25.2,68h5.05a1.63,1.63,0,0,0,1.64-1.64V61.28A1.64,1.64,0,0,0,30.25,59.64ZM25.43,8.86H30v4.6H25.43Zm-23.25-5a2,2,0,1,1,2,2A2,2,0,0,1,2.18,3.86Zm4,67.28a2,2,0,1,1-4,0,2,2,0,1,1,4,0ZM1.87,39.78v-4.6h4.6v4.6ZM30,66.11H25.43V61.52H30Z" transform="translate(0 0)"/><path id="Mazo" class="cls-1" d="M39.55,46.59l-11-11L32,32.15a3.48,3.48,0,0,0,0-4.94l-2.5-2.5a3.48,3.48,0,0,0-4.94,0L12.8,36.51a3.5,3.5,0,0,0,0,4.94L15.3,44a3.48,3.48,0,0,0,4.94,0l3.47-3.46,11,11a3.44,3.44,0,0,0,4.87,0A3.43,3.43,0,0,0,39.55,46.59Zm-20.63-4a1.66,1.66,0,0,1-2.29,0l-2.5-2.5a1.62,1.62,0,0,1,0-2.3L25.93,26a1.57,1.57,0,0,1,1.14-.47h0a1.64,1.64,0,0,1,1.15.47l2.5,2.5a1.62,1.62,0,0,1,0,2.3Zm19.31,7.51a1.63,1.63,0,0,1-2.23,0l-10.95-11L27.28,37l10.95,11A1.59,1.59,0,0,1,38.23,50.14Z" transform="translate(0 0)"/></g></svg>