<?xml version="1.0" encoding="utf-8"?>
<!-- Generator: Adobe Illustrator 24.1.0, SVG Export Plug-In . SVG Version: 6.00 Build 0)  -->
<svg version="1.1" id="Capa_1" xmlns="http://www.w3.org/2000/svg" xmlns:xlink="http://www.w3.org/1999/xlink" x="0px" y="0px"
	 viewBox="0 0 77 77" style="enable-background:new 0 0 77 77;" xml:space="preserve">
<style type="text/css">
	.st0{fill:#FFFFFF;}
	.st1{clip-path:url(#SVGID_2_);}
	.st2{fill:#00A263;}
</style>
<g>
	<circle class="st0" cx="38.5" cy="38.5" r="38.5"/>
	<g>
		<defs>
			<rect id="SVGID_1_" x="7.5" y="5.5" width="66.2" height="66.2"/>
		</defs>
		<clipPath id="SVGID_2_">
			<use xlink:href="#SVGID_1_"  style="overflow:visible;"/>
		</clipPath>
		<g id="Enmascarar_grupo_2" transform="translate(-63 -43)" class="st1">
			<g id="Grupo_117" transform="translate(81 44)">
				<g id="Grupo_69" transform="translate(3.444 40.608)">
					<path id="Trazado_142" class="st2" d="M22.4,20.2C12.8,17.8,5.7,9.7,4.5-0.1l1.6-0.2c1.1,9.1,7.8,16.7,16.7,18.9L22.4,20.2z"/>
				</g>
				<g id="Grupo_70" transform="translate(3.444 10.572)">
					<path id="Trazado_143" class="st2" d="M6.1,24.4l-1.6-0.2c1.2-9.8,8.3-17.9,17.9-20.3l0.4,1.6C13.9,7.7,7.2,15.2,6.1,24.4z"/>
				</g>
				<g id="Grupo_71" transform="translate(23.555 6.989)">
					<path id="Trazado_144" class="st2" d="M7.5,11.6H3.1c-0.8,0-1.4-0.6-1.4-1.4V5.8c0-0.8,0.6-1.4,1.4-1.4h4.3
						c0.8,0,1.4,0.6,1.4,1.4v4.3C8.9,10.9,8.2,11.6,7.5,11.6z M3.3,10h4V6h-4V10z"/>
				</g>
				<g id="Grupo_72" transform="translate(23.555 59.642)">
					<path id="Trazado_145" class="st2" d="M7.5,4.2H3.1c-0.8,0-1.4-0.6-1.4-1.4v-4.4C1.7-2.3,2.3-3,3.1-3h4.3
						c0.8,0,1.4,0.6,1.4,1.4v4.3C8.9,3.6,8.2,4.2,7.5,4.2C7.5,4.2,7.5,4.2,7.5,4.2z M3.3,2.6h4v-4h-4V2.6z"/>
				</g>
				<g id="Grupo_73" transform="translate(0 33.315)">
					<path id="Trazado_146" class="st2" d="M10.8,7.9H6.4C5.6,7.9,5,7.3,5,6.5V2.1c0-0.8,0.6-1.4,1.4-1.4h4.3c0.8,0,1.4,0.6,1.4,1.4
						v4.3C12.2,7.3,11.5,7.9,10.8,7.9z M6.6,6.3h3.9v-4H6.6V6.3z"/>
				</g>
				<g id="Grupo_74" transform="translate(3.233 5.991)">
					<path id="Trazado_147" class="st2" d="M5.3,29.7c-0.4,0-0.8-0.4-0.8-0.8c0,0,0,0,0,0V5.3c0-0.4,0.4-0.8,0.8-0.8
						c0.4,0,0.8,0.4,0.8,0.8v23.5C6.2,29.3,5.8,29.7,5.3,29.7C5.3,29.7,5.3,29.7,5.3,29.7z"/>
				</g>
				<g id="Grupo_75" transform="translate(3.233 39.781)">
					<path id="Trazado_148" class="st2" d="M5.3,25c-0.4,0-0.8-0.4-0.8-0.8c0,0,0,0,0,0V0.6c0-0.4,0.4-0.8,0.8-0.8
						c0.4,0,0.8,0.4,0.8,0.8v23.5C6.2,24.6,5.8,25,5.3,25C5.3,25,5.3,25,5.3,25z"/>
				</g>
				<g id="Grupo_76" transform="translate(0.31)">
					<path id="Trazado_149" class="st2" d="M8.3,12c-1.8,0-3.3-1.5-3.3-3.3s1.5-3.3,3.3-3.3c1.8,0,3.3,1.5,3.3,3.3
						C11.6,10.5,10.1,12,8.3,12z M8.3,7C7.3,7,6.6,7.7,6.6,8.7c0,0.9,0.8,1.7,1.7,1.7c0.9,0,1.7-0.8,1.7-1.7C10,7.7,9.2,7,8.3,7z"/>
				</g>
				<g id="Grupo_77" transform="translate(0.31 67.28)">
					<path id="Trazado_150" class="st2" d="M8.3,2.6c-1.8,0-3.3-1.5-3.3-3.3S6.4-4,8.3-4c1.8,0,3.3,1.5,3.3,3.3
						C11.6,1.1,10.1,2.6,8.3,2.6z M8.3-2.4c-0.9,0-1.7,0.8-1.7,1.7C6.6,0.2,7.3,1,8.3,1C9.2,1,10,0.2,10-0.7C10-1.6,9.2-2.4,8.3-2.4
						z"/>
				</g>
				<g id="Grupo_78" transform="translate(11.775 23.683)">
					<path id="Trazado_151" class="st2" d="M8.5,20.4c-0.8,0-1.6-0.3-2.1-0.9l-2.2-2.2c-1.2-1.2-1.2-3.1,0-4.3L14.4,2.9
						c1.2-1.2,3.1-1.2,4.3,0l2.2,2.2c1.2,1.2,1.2,3.1,0,4.3l0,0L10.6,19.5C10.1,20.1,9.3,20.4,8.5,20.4z M16.5,3.7
						c-0.4,0-0.7,0.1-1,0.4L5.4,14.2c-0.5,0.5-0.5,1.4,0,2l2.2,2.2c0.6,0.5,1.4,0.5,2,0L19.6,8.2c0.5-0.5,0.5-1.4,0-2l-2.2-2.2
						C17.2,3.8,16.9,3.7,16.5,3.7L16.5,3.7z M20.2,8.8L20.2,8.8z"/>
				</g>
				<g id="Grupo_79" transform="translate(22.785 34.692)">
					<path id="Trazado_152" class="st2" d="M14.1,15.8c-0.8,0-1.5-0.3-2.1-0.9L2,5C1.7,4.6,1.7,4.1,2,3.8l3.1-3.1
						c0.2-0.2,0.4-0.2,0.6-0.2l0,0c0.2,0,0.4,0.1,0.6,0.2l10,10c1.2,1.2,1.2,3,0,4.2C15.7,15.5,14.9,15.8,14.1,15.8L14.1,15.8z
						 M3.8,4.4l9.4,9.4l0,0c0.5,0.5,1.4,0.5,1.9,0c0.5-0.5,0.5-1.4,0-1.9L5.7,2.5L3.8,4.4z"/>
				</g>
			</g>
		</g>
	</g>
</g>
</svg>
