<svg xmlns="http://www.w3.org/2000/svg" xmlns:xlink="http://www.w3.org/1999/xlink" width="1920" height="2864" viewBox="0 0 1920 2864">
  <defs>
    <clipPath id="clip-path">
      <rect id="Rectángulo_133" data-name="Rectángulo 133" width="1920" height="2864" fill="#fff" stroke="#707070" stroke-width="1"/>
    </clipPath>
  </defs>
  <g id="Enmascarar_grupo_1" data-name="Enmascarar grupo 1" clip-path="url(#clip-path)">
    <g id="fondo" transform="translate(-306 -46.087)">
      <g id="Grupo_18" data-name="Grupo 18" transform="translate(-1141 320.634)">
        <path id="Trazado_14" data-name="Trazado 14" d="M619.841-61.513V203.919l87.019,87.019H970.332" transform="translate(2405.213 -121.034)" fill="none" stroke="#00a263" stroke-width="1"/>
        <path id="Trazado_26" data-name="Trazado 26" d="M817.739,142.316A101.488,101.488,0,0,0,917.23,42.268" transform="translate(2432.319 -106.819)" fill="none" stroke="#00a263" stroke-miterlimit="10" stroke-width="1.5" stroke-dasharray="0.998 0.998"/>
        <path id="Trazado_27" data-name="Trazado 27" d="M917.289,51.256A101.487,101.487,0,0,0,817.24-48.232" transform="translate(2432.251 -119.215)" fill="none" stroke="#00a263" stroke-miterlimit="10" stroke-width="1.5" stroke-dasharray="0.998 0.998"/>
        <path id="Trazado_28" data-name="Trazado 28" d="M826.229-48.225A101.489,101.489,0,0,0,726.738,51.822" transform="translate(2419.855 -119.214)" fill="none" stroke="#00a263" stroke-miterlimit="10" stroke-width="1.5" stroke-dasharray="0.998 0.998"/>
        <path id="Trazado_29" data-name="Trazado 29" d="M726.747,42.767a101.489,101.489,0,0,0,100.048,99.491" transform="translate(2419.856 -106.751)" fill="none" stroke="#00a263" stroke-miterlimit="10" stroke-width="1.5" stroke-dasharray="0.998 0.998"/>
        <path id="Trazado_30" data-name="Trazado 30" d="M827.364,154.729c.283,0,.568,0,.853,0s.568,0,.853,0M726.733,52.392c0,.284,0,.568,0,.853s0,.568,0,.853M829.07-48.238q-.426,0-.853,0c-.284,0-.57,0-.853,0M929.7,54.1c0-.284,0-.568,0-.853s0-.568,0-.853" transform="translate(2419.854 -119.216)" fill="none" stroke="#00a263" stroke-miterlimit="10" stroke-width="1.5"/>
        <path id="Trazado_47" data-name="Trazado 47" d="M817.736,121.855a81.033,81.033,0,0,0,79.035-79.589" transform="translate(2432.319 -106.819)" fill="none" stroke="#00a263" stroke-miterlimit="10" stroke-width="1.5" stroke-dasharray="0.995 0.995"/>
        <path id="Trazado_48" data-name="Trazado 48" d="M896.828,48.8a81.033,81.033,0,0,0-79.589-79.034" transform="translate(2432.251 -116.75)" fill="none" stroke="#00a263" stroke-miterlimit="10" stroke-width="1.5" stroke-dasharray="0.995 0.995"/>
        <path id="Trazado_49" data-name="Trazado 49" d="M823.767-30.229a81.033,81.033,0,0,0-79.035,79.588" transform="translate(2422.32 -116.749)" fill="none" stroke="#00a263" stroke-miterlimit="10" stroke-width="1.5" stroke-dasharray="0.995 0.995"/>
        <path id="Trazado_50" data-name="Trazado 50" d="M744.743,42.764A81.033,81.033,0,0,0,824.332,121.8" transform="translate(2422.321 -106.751)" fill="none" stroke="#00a263" stroke-miterlimit="10" stroke-width="1.5" stroke-dasharray="0.995 0.995"/>
        <path id="Trazado_51" data-name="Trazado 51" d="M824.9,131.808q.426,0,.853,0t.853,0m-81.879-81.88q-.005.426,0,.853t0,.853m81.879-81.879c-.283,0-.567,0-.853,0s-.568,0-.853,0m81.88,81.879q.005-.426,0-.853t0-.853" transform="translate(2422.318 -116.752)" fill="none" stroke="#00a263" stroke-miterlimit="10" stroke-width="1.5"/>
      </g>
      <path id="Trazado_78" data-name="Trazado 78" d="M389.614-59.841l54.312-54.312h10.254l.006,195.244m15.2-188.961V144.108m14.08,59.262a11.756,11.756,0,1,1,16.626,0A11.755,11.755,0,0,1,483.463,203.37Zm28.3-64.7a11.755,11.755,0,1,1,16.625,0A11.755,11.755,0,0,1,511.766,138.671ZM511.41-32.592a11.756,11.756,0,0,1,0-16.626,11.755,11.755,0,0,1,16.625,0,11.756,11.756,0,0,1,0,16.626A11.755,11.755,0,0,1,511.41-32.592ZM245.8-.127a11.756,11.756,0,0,1,0-16.626,11.756,11.756,0,0,1,16.626,0,11.756,11.756,0,0,1,0,16.626A11.756,11.756,0,0,1,245.8-.127ZM372.989-43.211a11.756,11.756,0,0,1,0-16.626,11.756,11.756,0,0,1,16.626,0,11.756,11.756,0,0,1,0,16.626A11.756,11.756,0,0,1,372.989-43.211ZM296.422-17.5a11.756,11.756,0,0,1,0-16.626,11.755,11.755,0,0,1,16.625,0,11.756,11.756,0,0,1,0,16.626A11.755,11.755,0,0,1,296.422-17.5ZM436.936-158.016a11.755,11.755,0,0,1,0-16.625,11.756,11.756,0,0,1,16.626,0,11.755,11.755,0,0,1,0,16.625A11.756,11.756,0,0,1,436.936-158.016Zm74.2.833a11.756,11.756,0,0,1,0-16.626,11.756,11.756,0,0,1,16.626,0,11.756,11.756,0,0,1,0,16.626A11.756,11.756,0,0,1,511.137-157.182ZM340.176-35.6,443.148-138.572h46.484V183.259m-32.667-348.6H507.7M313.045-34.124,436.939-158.017m82.667,276.629V-29.153m0,279.987V142.1m0-194.766V-153.749m-31.9-38.41H437.829L262.423-16.753" transform="translate(836.509 192.159)" fill="none" stroke="#00a263" stroke-miterlimit="10" stroke-width="1.5"/>
      <path id="Trazado_85" data-name="Trazado 85" d="M389.614-59.841l54.312-54.312h10.254l.006,195.244m15.2-188.961V144.108m14.08,59.262a11.756,11.756,0,1,1,16.626,0A11.755,11.755,0,0,1,483.463,203.37Zm28.3-64.7a11.755,11.755,0,1,1,16.625,0A11.755,11.755,0,0,1,511.766,138.671ZM511.41-32.592a11.756,11.756,0,0,1,0-16.626,11.755,11.755,0,0,1,16.625,0,11.756,11.756,0,0,1,0,16.626A11.755,11.755,0,0,1,511.41-32.592ZM245.8-.127a11.756,11.756,0,0,1,0-16.626,11.756,11.756,0,0,1,16.626,0,11.756,11.756,0,0,1,0,16.626A11.756,11.756,0,0,1,245.8-.127ZM372.989-43.211a11.756,11.756,0,0,1,0-16.626,11.756,11.756,0,0,1,16.626,0,11.756,11.756,0,0,1,0,16.626A11.756,11.756,0,0,1,372.989-43.211ZM296.422-17.5a11.756,11.756,0,0,1,0-16.626,11.755,11.755,0,0,1,16.625,0,11.756,11.756,0,0,1,0,16.626A11.755,11.755,0,0,1,296.422-17.5ZM436.936-158.016a11.755,11.755,0,0,1,0-16.625,11.756,11.756,0,0,1,16.626,0,11.755,11.755,0,0,1,0,16.625A11.756,11.756,0,0,1,436.936-158.016Zm74.2.833a11.756,11.756,0,0,1,0-16.626,11.756,11.756,0,0,1,16.626,0,11.756,11.756,0,0,1,0,16.626A11.756,11.756,0,0,1,511.137-157.182ZM340.176-35.6,443.148-138.572h46.484V183.259m-32.667-348.6H507.7M313.045-34.124,436.939-158.017m82.667,276.629V-29.153m0,279.987V142.1m0-194.766V-153.749m-31.9-38.41H437.829L262.423-16.753" transform="translate(1652.696 2877.834) rotate(180)" fill="none" stroke="#00a263" stroke-miterlimit="10" stroke-width="1.5"/>
      <path id="Trazado_84" data-name="Trazado 84" d="M389.614-59.841l54.312-54.312h10.254l.006,195.244m15.2-188.961V144.108m14.08,59.262a11.756,11.756,0,1,1,16.626,0A11.755,11.755,0,0,1,483.463,203.37Zm28.3-64.7a11.755,11.755,0,1,1,16.625,0A11.755,11.755,0,0,1,511.766,138.671ZM511.41-32.592a11.756,11.756,0,0,1,0-16.626,11.755,11.755,0,0,1,16.625,0,11.756,11.756,0,0,1,0,16.626A11.755,11.755,0,0,1,511.41-32.592ZM245.8-.127a11.756,11.756,0,0,1,0-16.626,11.756,11.756,0,0,1,16.626,0,11.756,11.756,0,0,1,0,16.626A11.756,11.756,0,0,1,245.8-.127ZM372.989-43.211a11.756,11.756,0,0,1,0-16.626,11.756,11.756,0,0,1,16.626,0,11.756,11.756,0,0,1,0,16.626A11.756,11.756,0,0,1,372.989-43.211ZM296.422-17.5a11.756,11.756,0,0,1,0-16.626,11.755,11.755,0,0,1,16.625,0,11.756,11.756,0,0,1,0,16.626A11.755,11.755,0,0,1,296.422-17.5ZM436.936-158.016a11.755,11.755,0,0,1,0-16.625,11.756,11.756,0,0,1,16.626,0,11.755,11.755,0,0,1,0,16.625A11.756,11.756,0,0,1,436.936-158.016Zm74.2.833a11.756,11.756,0,0,1,0-16.626,11.756,11.756,0,0,1,16.626,0,11.756,11.756,0,0,1,0,16.626A11.756,11.756,0,0,1,511.137-157.182ZM340.176-35.6,443.148-138.572h46.484V183.259m-32.667-348.6H507.7M313.045-34.124,436.939-158.017m82.667,276.629V-29.153m0,279.987V142.1m0-194.766V-153.749m-31.9-38.41H437.829L262.423-16.753" transform="matrix(0.259, -0.966, 0.966, 0.259, 1959.078, 3150.807)" fill="none" stroke="#00a263" stroke-miterlimit="10" stroke-width="1.5"/>
      <g id="Grupo_7" data-name="Grupo 7" transform="translate(-1173 780.087)">
        <path id="Trazado_79" data-name="Trazado 79" d="M-168.125,281.382h306.8l32.323,33.505H412.6" transform="translate(1356.286 140.932)" fill="none" stroke="#00a263" stroke-width="1"/>
        <path id="Trazado_80" data-name="Trazado 80" d="M-177.057,302.368h306.8l32.323,33.505h241.6" transform="translate(1355.062 143.807)" fill="none" stroke="#00a263" stroke-width="1"/>
        <path id="Trazado_81" data-name="Trazado 81" d="M-172.527,292.249h306.8l32.323,33.505h241.6" transform="translate(1355.683 142.421)" fill="none" stroke="#00a263" stroke-width="1"/>
        <path id="Trazado_82" data-name="Trazado 82" d="M-181.459,313.235h306.8L157.66,346.74h241.6" transform="translate(1354.459 145.295)" fill="none" stroke="#00a263" stroke-width="1"/>
      </g>
      <g id="Grupo_32" data-name="Grupo 32" transform="translate(663 1219.088)">
        <path id="Trazado_79-2" data-name="Trazado 79" d="M-168.125,281.382h306.8l32.323,33.505H412.6" transform="translate(1356.286 140.932)" fill="none" stroke="#00a263" stroke-width="1"/>
        <path id="Trazado_80-2" data-name="Trazado 80" d="M-177.057,302.368h306.8l32.323,33.505h241.6" transform="translate(1355.062 143.807)" fill="none" stroke="#00a263" stroke-width="1"/>
        <path id="Trazado_81-2" data-name="Trazado 81" d="M-172.527,292.249h306.8l32.323,33.505h241.6" transform="translate(1355.683 142.421)" fill="none" stroke="#00a263" stroke-width="1"/>
        <path id="Trazado_82-2" data-name="Trazado 82" d="M-181.459,313.235h306.8L157.66,346.74h241.6" transform="translate(1354.459 145.295)" fill="none" stroke="#00a263" stroke-width="1"/>
      </g>
      <path id="Trazado_83" data-name="Trazado 83" d="M264.9,775.563V510.132l-87.018-87.019H-85.59" transform="translate(336.591 2164.433)" fill="none" stroke="#00a263" stroke-width="1"/>
      <g id="Grupo_8" data-name="Grupo 8" transform="translate(491 -463.913)">
        <path id="Trazado_86" data-name="Trazado 86" d="M631.772,328.469h150.4l15.846,15.846H916.462" transform="translate(788.847 990.382)" fill="none" stroke="#00a263" stroke-width="1"/>
        <path id="Trazado_95" data-name="Trazado 95" d="M733.919,408.153a27.324,27.324,0,0,0,25.319-25.841" transform="translate(802.838 997.757)" fill="none" stroke="#00a263" stroke-miterlimit="10" stroke-width="1.5" stroke-dasharray="0.98 0.98"/>
        <path id="Trazado_90" data-name="Trazado 90" d="M759.27,382.394a27.323,27.323,0,0,0-25.841-25.318" transform="translate(802.771 994.3)" fill="none" stroke="#00a263" stroke-miterlimit="10" stroke-width="1.5" stroke-dasharray="0.98 0.98"/>
        <path id="Trazado_91" data-name="Trazado 91" d="M733.512,357.106a27.322,27.322,0,0,0-25.318,25.84" transform="translate(799.315 994.304)" fill="none" stroke="#00a263" stroke-miterlimit="10" stroke-width="1.5" stroke-dasharray="0.98 0.98"/>
        <path id="Trazado_96" data-name="Trazado 96" d="M708.223,382.8a27.323,27.323,0,0,0,25.841,25.319" transform="translate(799.319 997.824)" fill="none" stroke="#00a263" stroke-miterlimit="10" stroke-width="1.5" stroke-dasharray="0.98 0.98"/>
        <path id="Trazado_92" data-name="Trazado 92" d="M734.628,411.671c.283.007.567.011.853.011s.57,0,.853-.011m-28.159-28.16q-.012.426-.013.853t.013.853m28.159-28.157c-.283-.009-.567-.015-.853-.015s-.57.006-.853.015m28.159,28.157c.009-.282.013-.566.013-.853s0-.568-.013-.853" transform="translate(799.311 994.296)" fill="none" stroke="#00a263" stroke-miterlimit="10" stroke-width="1.5"/>
        <path id="Trazado_87" data-name="Trazado 87" d="M650.38,386.687a54.56,54.56,0,0,0,52.537-53.1" transform="translate(791.396 991.084)" fill="none" stroke="#00a263" stroke-miterlimit="10" stroke-width="1.5" stroke-dasharray="1.012 1.012"/>
        <path id="Trazado_88" data-name="Trazado 88" d="M702.969,336.9a54.562,54.562,0,0,0-53.1-52.536" transform="translate(791.327 984.341)" fill="none" stroke="#00a263" stroke-miterlimit="10" stroke-width="1.5" stroke-dasharray="1.012 1.012"/>
        <path id="Trazado_93" data-name="Trazado 93" d="M653.186,284.382a54.561,54.561,0,0,0-52.537,53.094" transform="translate(784.584 984.343)" fill="none" stroke="#00a263" stroke-miterlimit="10" stroke-width="1.5" stroke-dasharray="1.012 1.012"/>
        <path id="Trazado_94" data-name="Trazado 94" d="M600.664,334.1a54.561,54.561,0,0,0,53.1,52.537" transform="translate(784.587 991.153)" fill="none" stroke="#00a263" stroke-miterlimit="10" stroke-width="1.5" stroke-dasharray="1.012 1.012"/>
        <path id="Trazado_89" data-name="Trazado 89" d="M654.338,393.462q.426.005.853.006t.853-.006m-55.4-55.406q-.007.426-.007.853t.007.853m55.4-55.4q-.425-.007-.853-.007t-.853.007m55.406,55.4q.007-.426.007-.853t-.007-.853" transform="translate(784.582 984.339)" fill="none" stroke="#00a263" stroke-miterlimit="10" stroke-width="1.5"/>
      </g>
      <g id="Grupo_14" data-name="Grupo 14" transform="translate(2113.524 3734.754) rotate(180)">
        <path id="Trazado_86-2" data-name="Trazado 86" d="M631.772,328.469h150.4l15.846,15.846H916.462" transform="translate(788.847 990.382)" fill="none" stroke="#00a263" stroke-width="1"/>
        <path id="Trazado_95-2" data-name="Trazado 95" d="M733.919,408.153a27.324,27.324,0,0,0,25.319-25.841" transform="translate(802.838 997.757)" fill="none" stroke="#00a263" stroke-miterlimit="10" stroke-width="1.5" stroke-dasharray="0.98 0.98"/>
        <path id="Trazado_90-2" data-name="Trazado 90" d="M759.27,382.394a27.323,27.323,0,0,0-25.841-25.318" transform="translate(802.771 994.3)" fill="none" stroke="#00a263" stroke-miterlimit="10" stroke-width="1.5" stroke-dasharray="0.98 0.98"/>
        <path id="Trazado_91-2" data-name="Trazado 91" d="M733.512,357.106a27.322,27.322,0,0,0-25.318,25.84" transform="translate(799.315 994.304)" fill="none" stroke="#00a263" stroke-miterlimit="10" stroke-width="1.5" stroke-dasharray="0.98 0.98"/>
        <path id="Trazado_96-2" data-name="Trazado 96" d="M708.223,382.8a27.323,27.323,0,0,0,25.841,25.319" transform="translate(799.319 997.824)" fill="none" stroke="#00a263" stroke-miterlimit="10" stroke-width="1.5" stroke-dasharray="0.98 0.98"/>
        <path id="Trazado_92-2" data-name="Trazado 92" d="M734.628,411.671c.283.007.567.011.853.011s.57,0,.853-.011m-28.159-28.16q-.012.426-.013.853t.013.853m28.159-28.157c-.283-.009-.567-.015-.853-.015s-.57.006-.853.015m28.159,28.157c.009-.282.013-.566.013-.853s0-.568-.013-.853" transform="translate(799.311 994.296)" fill="none" stroke="#00a263" stroke-miterlimit="10" stroke-width="1.5"/>
        <path id="Trazado_87-2" data-name="Trazado 87" d="M650.38,386.687a54.56,54.56,0,0,0,52.537-53.1" transform="translate(791.396 991.084)" fill="none" stroke="#00a263" stroke-miterlimit="10" stroke-width="1.5" stroke-dasharray="1.012 1.012"/>
        <path id="Trazado_88-2" data-name="Trazado 88" d="M702.969,336.9a54.562,54.562,0,0,0-53.1-52.536" transform="translate(791.327 984.341)" fill="none" stroke="#00a263" stroke-miterlimit="10" stroke-width="1.5" stroke-dasharray="1.012 1.012"/>
        <path id="Trazado_93-2" data-name="Trazado 93" d="M653.186,284.382a54.561,54.561,0,0,0-52.537,53.094" transform="translate(784.584 984.343)" fill="none" stroke="#00a263" stroke-miterlimit="10" stroke-width="1.5" stroke-dasharray="1.012 1.012"/>
        <path id="Trazado_94-2" data-name="Trazado 94" d="M600.664,334.1a54.561,54.561,0,0,0,53.1,52.537" transform="translate(784.587 991.153)" fill="none" stroke="#00a263" stroke-miterlimit="10" stroke-width="1.5" stroke-dasharray="1.012 1.012"/>
        <path id="Trazado_89-2" data-name="Trazado 89" d="M654.338,393.462q.426.005.853.006t.853-.006m-55.4-55.406q-.007.426-.007.853t.007.853m55.4-55.4q-.425-.007-.853-.007t-.853.007m55.406,55.4q.007-.426.007-.853t-.007-.853" transform="translate(784.582 984.339)" fill="none" stroke="#00a263" stroke-miterlimit="10" stroke-width="1.5"/>
      </g>
      <g id="Grupo_9" data-name="Grupo 9" transform="translate(-1380.172 -663.085)">
        <path id="Trazado_52" data-name="Trazado 52" d="M475.415,518.987a32.6,32.6,0,0,0,31-31.431" transform="translate(2488.177 1462.04)" fill="none" stroke="#00a263" stroke-miterlimit="10" stroke-width="1.5" stroke-dasharray="1.013 1.013"/>
        <path id="Trazado_53" data-name="Trazado 53" d="M506.339,480.887a32.6,32.6,0,0,0-31.431-31" transform="translate(2488.23 1466.008)" fill="none" stroke="#00a263" stroke-miterlimit="10" stroke-width="1.5" stroke-dasharray="1.013 1.013"/>
        <path id="Trazado_54" data-name="Trazado 54" d="M468.239,449.913a32.594,32.594,0,0,0-31,31.43" transform="translate(2492.198 1466.006)" fill="none" stroke="#00a263" stroke-miterlimit="10" stroke-width="1.5" stroke-dasharray="1.013 1.013"/>
        <path id="Trazado_55" data-name="Trazado 55" d="M437.264,488.063a32.594,32.594,0,0,0,31.431,31" transform="translate(2492.196 1461.986)" fill="none" stroke="#00a263" stroke-miterlimit="10" stroke-width="1.5" stroke-dasharray="1.013 1.013"/>
        <path id="Trazado_56" data-name="Trazado 56" d="M469.144,515.048q.334.007.671.007t.671-.007m-33.257-33.256q-.007.334-.006.671t.006.671m33.257-33.256q-.336-.007-.671-.006t-.671.006M502.4,483.133q.007-.335.007-.671t-.007-.671" transform="translate(2492.2 1466.01)" fill="none" stroke="#00a263" stroke-miterlimit="10" stroke-width="1.5"/>
      </g>
      <g id="Grupo_11" data-name="Grupo 11" transform="translate(-2342.423 -1105.335)">
        <path id="Trazado_52-2" data-name="Trazado 52" d="M475.415,555.875a70.848,70.848,0,0,0,67.374-68.319" transform="translate(2528.278 1501.609)" fill="none" stroke="#00a263" stroke-miterlimit="10" stroke-width="1.5" stroke-dasharray="1.013 1.013"/>
        <path id="Trazado_53-2" data-name="Trazado 53" d="M543.227,517.265a70.85,70.85,0,0,0-68.319-67.374" transform="translate(2527.799 1466.029)" fill="none" stroke="#00a263" stroke-miterlimit="10" stroke-width="1.5" stroke-dasharray="1.013 1.013"/>
        <path id="Trazado_54-2" data-name="Trazado 54" d="M504.617,449.913a70.847,70.847,0,0,0-67.374,68.317" transform="translate(2492.219 1466.05)" fill="none" stroke="#00a263" stroke-miterlimit="10" stroke-width="1.5" stroke-dasharray="1.013 1.013"/>
        <path id="Trazado_55-2" data-name="Trazado 55" d="M437.264,488.063a70.847,70.847,0,0,0,68.319,67.374" transform="translate(2492.239 1502.087)" fill="none" stroke="#00a263" stroke-miterlimit="10" stroke-width="1.5" stroke-dasharray="1.013 1.013"/>
        <path id="Trazado_56-2" data-name="Trazado 56" d="M506.608,591.539q.726.015,1.458.016t1.459-.016m-72.288-72.286q-.015.726-.014,1.458t.014,1.458m72.288-72.286q-.729-.015-1.459-.014t-1.458.014m72.286,72.286q.014-.729.016-1.458t-.016-1.458" transform="translate(2492.2 1466.01)" fill="none" stroke="#00a263" stroke-miterlimit="10" stroke-width="1.5"/>
      </g>
      <g id="Grupo_10" data-name="Grupo 10" transform="translate(-1377.737 364.351)">
        <path id="Trazado_52-3" data-name="Trazado 52" d="M475.415,534a48.16,48.16,0,0,0,45.8-46.441" transform="translate(2504.494 1478.141)" fill="none" stroke="#00a263" stroke-miterlimit="10" stroke-width="1.5" stroke-dasharray="1.013 1.013"/>
        <path id="Trazado_53-3" data-name="Trazado 53" d="M521.349,495.69a48.162,48.162,0,0,0-46.441-45.8" transform="translate(2504.331 1466.016)" fill="none" stroke="#00a263" stroke-miterlimit="10" stroke-width="1.5" stroke-dasharray="1.013 1.013"/>
        <path id="Trazado_54-3" data-name="Trazado 54" d="M483.042,449.913a48.159,48.159,0,0,0-45.8,46.44" transform="translate(2492.207 1466.024)" fill="none" stroke="#00a263" stroke-miterlimit="10" stroke-width="1.5" stroke-dasharray="1.013 1.013"/>
        <path id="Trazado_55-3" data-name="Trazado 55" d="M437.264,488.063a48.159,48.159,0,0,0,46.441,45.8" transform="translate(2492.213 1478.304)" fill="none" stroke="#00a263" stroke-miterlimit="10" stroke-width="1.5" stroke-dasharray="1.013 1.013"/>
        <path id="Trazado_56-3" data-name="Trazado 56" d="M484.389,546.173q.494.01.991.011t.991-.011m-49.139-49.138q-.01.494-.009.991t.009.991m49.139-49.138q-.5-.01-.991-.009t-.991.009m49.138,49.138q.01-.5.01-.991t-.01-.991" transform="translate(2492.2 1466.01)" fill="none" stroke="#00a263" stroke-miterlimit="10" stroke-width="1.5"/>
      </g>
      <g id="Grupo_13" data-name="Grupo 13" transform="translate(-2122.423 -239.335)">
        <path id="Trazado_52-4" data-name="Trazado 52" d="M475.415,555.875a70.848,70.848,0,0,0,67.374-68.319" transform="translate(2528.278 1501.609)" fill="none" stroke="#00a263" stroke-miterlimit="10" stroke-width="1.5" stroke-dasharray="1.013 1.013"/>
        <path id="Trazado_53-4" data-name="Trazado 53" d="M543.227,517.265a70.85,70.85,0,0,0-68.319-67.374" transform="translate(2527.799 1466.029)" fill="none" stroke="#00a263" stroke-miterlimit="10" stroke-width="1.5" stroke-dasharray="1.013 1.013"/>
        <path id="Trazado_54-4" data-name="Trazado 54" d="M504.617,449.913a70.847,70.847,0,0,0-67.374,68.317" transform="translate(2492.219 1466.05)" fill="none" stroke="#00a263" stroke-miterlimit="10" stroke-width="1.5" stroke-dasharray="1.013 1.013"/>
        <path id="Trazado_55-4" data-name="Trazado 55" d="M437.264,488.063a70.847,70.847,0,0,0,68.319,67.374" transform="translate(2492.239 1502.087)" fill="none" stroke="#00a263" stroke-miterlimit="10" stroke-width="1.5" stroke-dasharray="1.013 1.013"/>
        <path id="Trazado_56-4" data-name="Trazado 56" d="M506.608,591.539q.726.015,1.458.016t1.459-.016m-72.288-72.286q-.015.726-.014,1.458t.014,1.458m72.288-72.286q-.729-.015-1.459-.014t-1.458.014m72.286,72.286q.014-.729.016-1.458t-.016-1.458" transform="translate(2492.2 1466.01)" fill="none" stroke="#00a263" stroke-miterlimit="10" stroke-width="1.5"/>
      </g>
      <g id="Grupo_12" data-name="Grupo 12" transform="translate(-2342.423 -1105.335)">
        <path id="Trazado_52-5" data-name="Trazado 52" d="M475.415,555.875a70.848,70.848,0,0,0,67.374-68.319" transform="translate(2528.278 1501.609)" fill="none" stroke="#00a263" stroke-miterlimit="10" stroke-width="1.5" stroke-dasharray="1.013 1.013"/>
        <path id="Trazado_53-5" data-name="Trazado 53" d="M543.227,517.265a70.85,70.85,0,0,0-68.319-67.374" transform="translate(2527.799 1466.029)" fill="none" stroke="#00a263" stroke-miterlimit="10" stroke-width="1.5" stroke-dasharray="1.013 1.013"/>
        <path id="Trazado_54-5" data-name="Trazado 54" d="M504.617,449.913a70.847,70.847,0,0,0-67.374,68.317" transform="translate(2492.219 1466.05)" fill="none" stroke="#00a263" stroke-miterlimit="10" stroke-width="1.5" stroke-dasharray="1.013 1.013"/>
        <path id="Trazado_55-5" data-name="Trazado 55" d="M437.264,488.063a70.847,70.847,0,0,0,68.319,67.374" transform="translate(2492.239 1502.087)" fill="none" stroke="#00a263" stroke-miterlimit="10" stroke-width="1.5" stroke-dasharray="1.013 1.013"/>
        <path id="Trazado_56-5" data-name="Trazado 56" d="M506.608,591.539q.726.015,1.458.016t1.459-.016m-72.288-72.286q-.015.726-.014,1.458t.014,1.458m72.288-72.286q-.729-.015-1.459-.014t-1.458.014m72.286,72.286q.014-.729.016-1.458t-.016-1.458" transform="translate(2492.2 1466.01)" fill="none" stroke="#00a263" stroke-miterlimit="10" stroke-width="1.5"/>
      </g>
      <g id="Grupo_15" data-name="Grupo 15" transform="translate(-1912 476.087)">
        <path id="Trazado_16" data-name="Trazado 16" d="M201.106,169.721A93.683,93.683,0,0,0,292.8,77.475" transform="translate(2347.859 -101.997)" fill="none" stroke="#00a263" stroke-miterlimit="10" stroke-width="1.5" stroke-dasharray="0.992 0.992"/>
        <path id="Trazado_17" data-name="Trazado 17" d="M292.856,85.534A93.683,93.683,0,0,0,200.61-6.157" transform="translate(2347.791 -113.452)" fill="none" stroke="#00a263" stroke-miterlimit="10" stroke-width="1.5" stroke-dasharray="0.992 0.992"/>
        <path id="Trazado_18" data-name="Trazado 18" d="M208.669-6.148A93.684,93.684,0,0,0,116.977,86.1" transform="translate(2336.336 -113.451)" fill="none" stroke="#00a263" stroke-miterlimit="10" stroke-width="1.5" stroke-dasharray="0.992 0.992"/>
        <path id="Trazado_19" data-name="Trazado 19" d="M116.985,77.971a93.683,93.683,0,0,0,92.246,91.692" transform="translate(2336.337 -101.929)" fill="none" stroke="#00a263" stroke-miterlimit="10" stroke-width="1.5" stroke-dasharray="0.992 0.992"/>
        <path id="Trazado_20" data-name="Trazado 20" d="M209.8,181.194q.426,0,.853,0t.853,0M116.972,86.662c0,.284,0,.568,0,.853s0,.568,0,.853M211.5-6.162q-.425-.005-.853,0t-.853,0m94.532,94.53q0-.426,0-.853t0-.853" transform="translate(2336.335 -113.453)" fill="none" stroke="#00a263" stroke-miterlimit="10" stroke-width="1.5"/>
        <path id="Trazado_21" data-name="Trazado 21" d="M80.576,219.253a43.264,43.264,0,0,0,41.263-41.8" transform="translate(2331.35 -88.303)" fill="none" stroke="#00a263" stroke-miterlimit="10" stroke-width="1.5" stroke-dasharray="0.988 0.988"/>
        <path id="Trazado_22" data-name="Trazado 22" d="M121.885,179.44a43.264,43.264,0,0,0-41.8-41.263" transform="translate(2331.282 -93.682)" fill="none" stroke="#00a263" stroke-miterlimit="10" stroke-width="1.5" stroke-dasharray="0.988 0.988"/>
        <path id="Trazado_23" data-name="Trazado 23" d="M82.073,138.2A43.263,43.263,0,0,0,40.81,180" transform="translate(2325.903 -93.68)" fill="none" stroke="#00a263" stroke-miterlimit="10" stroke-width="1.5" stroke-dasharray="0.988 0.988"/>
        <path id="Trazado_24" data-name="Trazado 24" d="M40.828,177.944a43.263,43.263,0,0,0,41.8,41.263" transform="translate(2325.906 -88.236)" fill="none" stroke="#00a263" stroke-miterlimit="10" stroke-width="1.5" stroke-dasharray="0.988 0.988"/>
        <path id="Trazado_25" data-name="Trazado 25" d="M83.2,224.671q.425.009.853.008t.853-.008M40.8,180.566q-.009.425-.008.853t.008.853M84.9,138.166c-.283,0-.567-.008-.853-.008s-.57,0-.853.008M127.3,182.271q.009-.426.008-.853t-.008-.853" transform="translate(2325.901 -93.685)" fill="none" stroke="#00a263" stroke-miterlimit="10" stroke-width="1.5"/>
        <path id="Trazado_31" data-name="Trazado 31" d="M2.48,83.786h150.4l15.846,15.846H287.171" transform="translate(2320.653 -101.132)" fill="none" stroke="#00a263" stroke-width="1"/>
        <path id="Trazado_37" data-name="Trazado 37" d="M72.871,44.513v4.5m-16.806,0v-4.5H89.906v4.5m-50.876,0v-4.5h67.912v4.5" transform="translate(2325.66 -106.512)" fill="none" stroke="#00a263" stroke-miterlimit="10" stroke-width="0.75"/>
        <path id="Trazado_38" data-name="Trazado 38" d="M44.6,59.806H34.407V49.069H44.6Zm-.05-11.267v-.6h-.46v.6H42.944v-.6h-.46v.6H41.339v-.6h-.46v.6H39.733v-.6h-.46v.6H38.128v-.6h-.46v.6H36.523v-.6h-.46v.6H34.917v-.6h-.46v.6H33.9v11.8h.554v.6h.46v-.6h1.145v.6h.46v-.6h1.145v.6h.46v-.6h1.145v.6h.46v-.6h1.145v.6h.46v-.6h1.145v.6h.46v-.6h1.145v.6h.46v-.6H45.1v-11.8Z" transform="translate(2324.957 -106.042)" fill="#00a263"/>
        <path id="Trazado_39" data-name="Trazado 39" d="M59.581,59.806H49.389V49.069H59.581Zm-.049-11.267v-.6h-.46v.6H57.927v-.6h-.46v.6H56.322v-.6h-.46v.6H54.716v-.6h-.46v.6H53.111v-.6h-.46v.6H51.506v-.6h-.46v.6H49.9v-.6H49.44v.6h-.554v11.8h.554v.6H49.9v-.6h1.146v.6h.46v-.6h1.145v.6h.46v-.6h1.145v.6h.46v-.6h1.145v.6h.46v-.6h1.145v.6h.46v-.6h1.145v.6h.46v-.6h.553v-11.8Z" transform="translate(2327.01 -106.042)" fill="#00a263"/>
        <path id="Trazado_40" data-name="Trazado 40" d="M74.564,59.806H64.372V49.069H74.564Zm-.049-11.267v-.6h-.46v.6H72.91v-.6h-.46v.6H71.3v-.6h-.46v.6H69.7v-.6h-.46v.6H68.094v-.6h-.46v.6H66.489v-.6h-.46v.6H64.883v-.6h-.46v.6h-.554v11.8h.554v.6h.46v-.6h1.145v.6h.46v-.6h1.145v.6h.46v-.6h1.145v.6h.46v-.6h1.145v.6h.46v-.6H72.45v.6h.46v-.6h1.145v.6h.46v-.6h.553v-11.8Z" transform="translate(2329.062 -106.042)" fill="#00a263"/>
        <path id="Trazado_41" data-name="Trazado 41" d="M89.547,59.806H79.356V49.069H89.547ZM89.5,48.539v-.6h-.46v.6H87.893v-.6h-.46v.6H86.288v-.6h-.46v.6H84.682v-.6h-.46v.6H83.077v-.6h-.46v.6H81.472v-.6h-.46v.6H79.866v-.6h-.46v.6h-.554v11.8h.554v.6h.46v-.6h1.145v.6h.46v-.6h1.145v.6h.46v-.6h1.145v.6h.46v-.6h1.145v.6h.46v-.6h1.145v.6h.46v-.6h1.145v.6h.46v-.6h.553v-11.8Z" transform="translate(2331.114 -106.042)" fill="#00a263"/>
        <path id="Trazado_42" data-name="Trazado 42" d="M104.531,59.806H94.339V49.069h10.193Zm-.049-11.267v-.6h-.46v.6h-1.145v-.6h-.46v.6h-1.145v-.6h-.46v.6H99.666v-.6h-.46v.6H98.061v-.6H97.6v.6H96.456v-.6H96v.6H94.849v-.6H94.39v.6h-.554v11.8h.554v.6h.459v-.6H96v.6h.46v-.6H97.6v.6h.46v-.6h1.145v.6h.46v-.6h1.145v.6h.46v-.6h1.145v.6h.46v-.6h1.145v.6h.46v-.6h.553v-11.8Z" transform="translate(2333.167 -106.042)" fill="#00a263"/>
        <path id="Trazado_43" data-name="Trazado 43" d="M73.1,63.165v-4.5m16.806,0v4.5H56.066v-4.5m50.876,0v4.5H39.03v-4.5" transform="translate(2325.66 -104.573)" fill="none" stroke="#00a263" stroke-miterlimit="10" stroke-width="0.75"/>
      </g>
      <g id="Grupo_16" data-name="Grupo 16" transform="translate(4381.801 2006.462) rotate(180)">
        <path id="Trazado_16-2" data-name="Trazado 16" d="M201.106,169.721A93.683,93.683,0,0,0,292.8,77.475" transform="translate(2347.859 -101.997)" fill="none" stroke="#00a263" stroke-miterlimit="10" stroke-width="1.5" stroke-dasharray="0.992 0.992"/>
        <path id="Trazado_17-2" data-name="Trazado 17" d="M292.856,85.534A93.683,93.683,0,0,0,200.61-6.157" transform="translate(2347.791 -113.452)" fill="none" stroke="#00a263" stroke-miterlimit="10" stroke-width="1.5" stroke-dasharray="0.992 0.992"/>
        <path id="Trazado_18-2" data-name="Trazado 18" d="M208.669-6.148A93.684,93.684,0,0,0,116.977,86.1" transform="translate(2336.336 -113.451)" fill="none" stroke="#00a263" stroke-miterlimit="10" stroke-width="1.5" stroke-dasharray="0.992 0.992"/>
        <path id="Trazado_19-2" data-name="Trazado 19" d="M116.985,77.971a93.683,93.683,0,0,0,92.246,91.692" transform="translate(2336.337 -101.929)" fill="none" stroke="#00a263" stroke-miterlimit="10" stroke-width="1.5" stroke-dasharray="0.992 0.992"/>
        <path id="Trazado_20-2" data-name="Trazado 20" d="M209.8,181.194q.426,0,.853,0t.853,0M116.972,86.662c0,.284,0,.568,0,.853s0,.568,0,.853M211.5-6.162q-.425-.005-.853,0t-.853,0m94.532,94.53q0-.426,0-.853t0-.853" transform="translate(2336.335 -113.453)" fill="none" stroke="#00a263" stroke-miterlimit="10" stroke-width="1.5"/>
        <path id="Trazado_21-2" data-name="Trazado 21" d="M80.576,219.253a43.264,43.264,0,0,0,41.263-41.8" transform="translate(2331.35 -88.303)" fill="none" stroke="#00a263" stroke-miterlimit="10" stroke-width="1.5" stroke-dasharray="0.988 0.988"/>
        <path id="Trazado_22-2" data-name="Trazado 22" d="M121.885,179.44a43.264,43.264,0,0,0-41.8-41.263" transform="translate(2331.282 -93.682)" fill="none" stroke="#00a263" stroke-miterlimit="10" stroke-width="1.5" stroke-dasharray="0.988 0.988"/>
        <path id="Trazado_23-2" data-name="Trazado 23" d="M82.073,138.2A43.263,43.263,0,0,0,40.81,180" transform="translate(2325.903 -93.68)" fill="none" stroke="#00a263" stroke-miterlimit="10" stroke-width="1.5" stroke-dasharray="0.988 0.988"/>
        <path id="Trazado_24-2" data-name="Trazado 24" d="M40.828,177.944a43.263,43.263,0,0,0,41.8,41.263" transform="translate(2325.906 -88.236)" fill="none" stroke="#00a263" stroke-miterlimit="10" stroke-width="1.5" stroke-dasharray="0.988 0.988"/>
        <path id="Trazado_25-2" data-name="Trazado 25" d="M83.2,224.671q.425.009.853.008t.853-.008M40.8,180.566q-.009.425-.008.853t.008.853M84.9,138.166c-.283,0-.567-.008-.853-.008s-.57,0-.853.008M127.3,182.271q.009-.426.008-.853t-.008-.853" transform="translate(2325.901 -93.685)" fill="none" stroke="#00a263" stroke-miterlimit="10" stroke-width="1.5"/>
        <path id="Trazado_31-2" data-name="Trazado 31" d="M2.48,83.786h150.4l15.846,15.846H287.171" transform="translate(2320.653 -101.132)" fill="none" stroke="#00a263" stroke-width="1"/>
        <path id="Trazado_37-2" data-name="Trazado 37" d="M72.871,44.513v4.5m-16.806,0v-4.5H89.906v4.5m-50.876,0v-4.5h67.912v4.5" transform="translate(2325.66 -106.512)" fill="none" stroke="#00a263" stroke-miterlimit="10" stroke-width="0.75"/>
        <path id="Trazado_38-2" data-name="Trazado 38" d="M44.6,59.806H34.407V49.069H44.6Zm-.05-11.267v-.6h-.46v.6H42.944v-.6h-.46v.6H41.339v-.6h-.46v.6H39.733v-.6h-.46v.6H38.128v-.6h-.46v.6H36.523v-.6h-.46v.6H34.917v-.6h-.46v.6H33.9v11.8h.554v.6h.46v-.6h1.145v.6h.46v-.6h1.145v.6h.46v-.6h1.145v.6h.46v-.6h1.145v.6h.46v-.6h1.145v.6h.46v-.6h1.145v.6h.46v-.6H45.1v-11.8Z" transform="translate(2324.957 -106.042)" fill="#00a263"/>
        <path id="Trazado_39-2" data-name="Trazado 39" d="M59.581,59.806H49.389V49.069H59.581Zm-.049-11.267v-.6h-.46v.6H57.927v-.6h-.46v.6H56.322v-.6h-.46v.6H54.716v-.6h-.46v.6H53.111v-.6h-.46v.6H51.506v-.6h-.46v.6H49.9v-.6H49.44v.6h-.554v11.8h.554v.6H49.9v-.6h1.146v.6h.46v-.6h1.145v.6h.46v-.6h1.145v.6h.46v-.6h1.145v.6h.46v-.6h1.145v.6h.46v-.6h1.145v.6h.46v-.6h.553v-11.8Z" transform="translate(2327.01 -106.042)" fill="#00a263"/>
        <path id="Trazado_40-2" data-name="Trazado 40" d="M74.564,59.806H64.372V49.069H74.564Zm-.049-11.267v-.6h-.46v.6H72.91v-.6h-.46v.6H71.3v-.6h-.46v.6H69.7v-.6h-.46v.6H68.094v-.6h-.46v.6H66.489v-.6h-.46v.6H64.883v-.6h-.46v.6h-.554v11.8h.554v.6h.46v-.6h1.145v.6h.46v-.6h1.145v.6h.46v-.6h1.145v.6h.46v-.6h1.145v.6h.46v-.6H72.45v.6h.46v-.6h1.145v.6h.46v-.6h.553v-11.8Z" transform="translate(2329.062 -106.042)" fill="#00a263"/>
        <path id="Trazado_41-2" data-name="Trazado 41" d="M89.547,59.806H79.356V49.069H89.547ZM89.5,48.539v-.6h-.46v.6H87.893v-.6h-.46v.6H86.288v-.6h-.46v.6H84.682v-.6h-.46v.6H83.077v-.6h-.46v.6H81.472v-.6h-.46v.6H79.866v-.6h-.46v.6h-.554v11.8h.554v.6h.46v-.6h1.145v.6h.46v-.6h1.145v.6h.46v-.6h1.145v.6h.46v-.6h1.145v.6h.46v-.6h1.145v.6h.46v-.6h1.145v.6h.46v-.6h.553v-11.8Z" transform="translate(2331.114 -106.042)" fill="#00a263"/>
        <path id="Trazado_42-2" data-name="Trazado 42" d="M104.531,59.806H94.339V49.069h10.193Zm-.049-11.267v-.6h-.46v.6h-1.145v-.6h-.46v.6h-1.145v-.6h-.46v.6H99.666v-.6h-.46v.6H98.061v-.6H97.6v.6H96.456v-.6H96v.6H94.849v-.6H94.39v.6h-.554v11.8h.554v.6h.459v-.6H96v.6h.46v-.6H97.6v.6h.46v-.6h1.145v.6h.46v-.6h1.145v.6h.46v-.6h1.145v.6h.46v-.6h1.145v.6h.46v-.6h.553v-11.8Z" transform="translate(2333.167 -106.042)" fill="#00a263"/>
        <path id="Trazado_43-2" data-name="Trazado 43" d="M73.1,63.165v-4.5m16.806,0v4.5H56.066v-4.5m50.876,0v4.5H39.03v-4.5" transform="translate(2325.66 -104.573)" fill="none" stroke="#00a263" stroke-miterlimit="10" stroke-width="0.75"/>
      </g>
    </g>
  </g>
</svg>
