<?xml version="1.0" encoding="utf-8"?>
<!-- Generator: Adobe Illustrator 24.1.0, SVG Export Plug-In . SVG Version: 6.00 Build 0)  -->
<svg version="1.1" id="marca-vertical" xmlns="http://www.w3.org/2000/svg" xmlns:xlink="http://www.w3.org/1999/xlink" x="0px"
	 y="0px" viewBox="0 0 300.8 210.9" style="enable-background:new 0 0 300.8 210.9;" xml:space="preserve">
<style type="text/css">
	.st0{fill:#00A263;}
	.st1{fill:#392562;}
</style>
<g id="isotipo">
	<path class="st0" d="M159.1,28h9.3c1.7,0,3-1.4,3-3v-9.2c0-1.7-1.3-3-3-3h-9.3c-1.7,0-3,1.3-3,3v3.9c-15.7,4.4-28,15.9-33.8,30.7
		V13.9c3.1-0.8,5.3-3.5,5.3-6.8c0-3.9-3.2-7.1-7.1-7.1s-7.1,3.2-7.1,7.1c0,3.3,2.3,6.1,5.3,6.8v47H116c-1.7,0-3,1.3-3,3v9.3
		c0,1.7,1.3,3,3,3h2.9v47.1c-3.1,0.8-5.3,3.5-5.3,6.8c0,3.9,3.2,7.1,7.1,7.1c3.9,0,7.1-3.2,7.1-7.1c0-3.3-2.3-6.1-5.3-6.8V86.8
		c5.7,14.8,18.1,26.3,33.8,30.6v3.9c0,1.7,1.3,3,3,3h9.3c1.7,0,3-1.3,3-3v-9.3c0-1.7-1.3-3-3-3h-9.3c-1.7,0-3,1.3-3,3v1.8
		c-17.3-5.2-30.2-19.8-33.1-37.7h2.3c1.7,0,3-1.3,3-3V64c0-1.7-1.4-3-3-3H123c2.9-17.9,15.8-32.5,33.1-37.7V25
		C156.1,26.7,157.4,28,159.1,28z M159.5,16.2h8.4v8.4h-8.4V16.2z M159.5,112.6h8.4v8.4h-8.4V112.6z M117,7.1c0-2,1.6-3.6,3.6-3.6
		c1,0,1.9,0.4,2.6,1.1c0.7,0.7,1.1,1.6,1.1,2.6c0,2-1.6,3.6-3.6,3.6S117,9.1,117,7.1z M123.2,127.6c0.7,0.7,1.1,1.6,1.1,2.6
		c0,2-1.6,3.6-3.6,3.6s-3.6-1.6-3.6-3.6c0-2,1.6-3.6,3.6-3.6C121.6,126.5,122.5,126.9,123.2,127.6z M124.8,64.4v8.4h-8.4v-8.4H124.8
		z"/>
	<path class="st0" d="M185.4,85.2l-20.1-20.1l6.3-6.3c2.5-2.5,2.5-6.5,0-9l-4.6-4.6c-2.5-2.5-6.5-2.5-9,0l-21.6,21.6
		c-2.5,2.5-2.5,6.5,0,9l4.6,4.6c1.2,1.2,2.8,1.9,4.5,1.9c1.7,0,3.3-0.7,4.5-1.9l6.3-6.3l20.1,20.1c1.2,1.2,2.8,1.8,4.5,1.8h0
		c1.7,0,3.3-0.7,4.5-1.8C187.8,91.7,187.8,87.7,185.4,85.2z M147.6,78c-1.2,1.1-3,1.1-4.2,0l-4.6-4.6c-1.2-1.2-1.2-3,0-4.2
		l21.6-21.6c0.5-0.6,1.3-0.9,2.1-0.9c0.8,0,1.5,0.3,2.1,0.9l4.6,4.6c1.2,1.2,1.2,3,0,4.2L147.6,78z M183,91.7
		c-1.1,1.1-2.9,1.1-4.1,0l-20-20l4.1-4.1l20,20C184.1,88.8,184.1,90.6,183,91.7z"/>
</g>
<g id="logotipo">
	<path id="Trazado_132" class="st1" d="M0,202.2v-32.5h8.8v32.5H0z M25.2,202.2l-13.3-13.7c-0.3-0.4-0.6-0.8-0.9-1.3
		c-0.2-0.4-0.3-0.9-0.3-1.4v-0.8c0-1,0.4-2,1.2-2.7l12.9-12.8H36l-15.7,15.7l16.5,16.8H25.2z"/>
	<path id="Trazado_133" class="st1" d="M49.4,202.2c-1.8,0-3.6-0.3-5.4-0.9c-1.6-0.6-3-1.4-4.3-2.6c-1.2-1.1-2.2-2.5-2.8-4
		c-1.3-3.3-1.3-6.9,0-10.2c0.6-1.5,1.6-2.9,2.8-4c1.2-1.1,2.7-2,4.3-2.6c1.7-0.6,3.5-0.9,5.4-0.9h6.4c1.3,0,2.6,0.2,3.8,0.6
		c1,0.4,1.9,0.9,2.7,1.7c0.7,0.7,1.3,1.6,1.6,2.5c0.4,1,0.5,2.1,0.5,3.2c0.1,1.9-0.6,3.7-1.9,5c-1.3,1.1-3.4,1.7-6.3,1.7h-8.9v-4.6
		h7.2c1.3,0,2-0.6,2-1.8c0.1-0.9-0.5-1.7-1.4-1.9c-0.2,0-0.3,0-0.5,0h-5.1c-1.4,0-2.7,0.5-3.7,1.6c-1,1.2-1.5,2.8-1.4,4.4
		c-0.1,1.6,0.4,3.1,1.4,4.3c1,1,2.3,1.5,3.7,1.4H63v6.9L49.4,202.2z"/>
	<path id="Trazado_134" class="st1" d="M71.9,174.8c-1,0-2-0.3-2.7-1c-0.7-0.7-1.1-1.7-1.1-2.7c0-1,0.4-1.9,1.1-2.6
		c0.8-0.7,1.7-1,2.7-1h1.2c1,0,2,0.3,2.7,1c0.7,0.7,1.1,1.6,1.1,2.6c0.1,1-0.3,2-1.1,2.7c-0.7,0.7-1.7,1-2.7,1H71.9z M68.3,202.2
		v-25h8.4v25H68.3z"/>
	<path id="Trazado_135" class="st1" d="M91.3,210.9v-7.6h6.3c1.8,0,3.1-0.4,3.8-1.2c0.8-1,1.2-2.3,1.1-3.6v-10.1
		c0-2.4-1.4-3.6-4.3-3.6H94c-1.3-0.1-2.6,0.3-3.7,1c-1,0.7-1.5,1.9-1.4,3.2c-0.1,1.2,0.5,2.5,1.6,3.1c1.4,0.6,2.9,0.9,4.4,0.9
		c0.8,0,1.6,0,2.5-0.1c0.9-0.1,1.8-0.2,2.7-0.4v6.8c-1,0.2-2,0.4-3,0.6c-1.1,0.1-2.2,0.2-3.3,0.2c-4.3,0-7.6-1-9.9-3
		c-2.3-2.1-3.5-5.1-3.4-8.1c0-1.7,0.3-3.4,1-5c0.7-1.4,1.6-2.7,2.9-3.7c1.3-1,2.8-1.8,4.4-2.3c1.9-0.5,3.8-0.8,5.7-0.8h4.6
		c3.7,0,6.6,1,8.7,3.1c2.1,2.1,3.1,5,3.1,8.8v9.5c0,4.2-1.1,7.3-3.2,9.3c-2.1,2-5.5,3-10.2,3H91.3z"/>
	<path id="Trazado_136" class="st1" d="M128,202.2c-1.8,0-3.6-0.3-5.4-0.9c-1.6-0.6-3-1.4-4.3-2.6c-1.2-1.1-2.2-2.5-2.8-4
		c-1.3-3.3-1.3-6.9,0-10.2c0.6-1.5,1.6-2.9,2.8-4c1.2-1.1,2.7-2,4.3-2.6c1.7-0.6,3.5-0.9,5.4-0.9h3.5c1.8,0,3.6,0.3,5.4,0.9
		c1.6,0.6,3,1.4,4.3,2.6c1.2,1.1,2.2,2.5,2.8,4c1.3,3.3,1.3,6.9,0,10.2c-0.6,1.5-1.6,2.9-2.8,4c-1.2,1.1-2.7,2-4.3,2.6
		c-1.7,0.6-3.5,0.9-5.4,0.9H128z M131.5,194.6c1.3,0,2.6-0.4,3.6-1.4c1-0.9,1.5-2.2,1.4-3.6c0.1-1.3-0.5-2.6-1.4-3.5
		c-1-0.9-2.3-1.4-3.6-1.3h-3.6c-1.3-0.1-2.7,0.4-3.7,1.3c-0.9,0.9-1.5,2.2-1.4,3.5c-0.1,1.3,0.5,2.6,1.4,3.6c1,0.9,2.3,1.4,3.7,1.4
		H131.5z"/>
	<path id="Trazado_137" class="st1" d="M161.1,202.2c-4.2,0-7.3-1-9.4-3.1s-3.1-5-3.1-8.8v-23.2h8.4v23.2c0,2.9,1.5,4.3,4.4,4.3h4.2
		c1.3,0.1,2.6-0.4,3.7-1.2c1-1,1.6-2.5,1.4-3.9c0-1.8-0.5-3.1-1.6-3.8c-1.4-0.8-2.9-1.2-4.5-1.1c-0.8,0-1.7,0.1-2.5,0.2
		c-0.9,0.1-1.8,0.3-2.7,0.5v-7.6c0.9-0.2,1.9-0.4,2.9-0.5c1.1-0.1,2.1-0.2,3.2-0.2c4.5,0,7.8,1.1,10.1,3.3c2.3,2.4,3.6,5.6,3.4,8.9
		c0,1.9-0.3,3.8-1,5.5c-0.6,1.6-1.6,2.9-2.8,4.1c-1.2,1.1-2.7,2-4.3,2.5c-1.7,0.6-3.6,0.9-5.4,0.9L161.1,202.2z"/>
	<path id="Trazado_138" class="st1" d="M182.6,202.2v-13.1c0-3.8,1.1-6.7,3.2-8.8s5.2-3.1,9.3-3.1h7v7.6h-6.8
		c-2.9,0-4.3,1.4-4.3,4.3v13.1H182.6z"/>
	<path id="Trazado_139" class="st1" d="M212.5,202.2c-2.6,0-4.6-0.7-5.9-2.1c-2.6-3.1-2.6-7.6,0-10.7c1.3-1.4,3.3-2.1,5.9-2.1h9.3
		v4.9h-7.4c-1.2,0-1.9,0.6-1.9,1.8c-0.1,0.8,0.5,1.6,1.3,1.8c0.1,0,0.3,0,0.4,0h10v-7.2c0-2.8-1.5-4.3-4.4-4.3h-13.9v-7.1h14
		c4.2,0,7.3,1,9.4,3.1c2.1,2.1,3.1,5,3.1,8.8v13.1H212.5z"/>
	<path id="Trazado_140" class="st1" d="M258.5,202.2v-13.1c0-2.8-1.5-4.3-4.4-4.3h-8.4v17.4h-8.4v-25h17c4.1,0,7.3,1,9.4,3.1
		c2.1,2.1,3.2,5,3.2,8.8v13.1H258.5z"/>
	<path id="Trazado_141" class="st1" d="M283.9,202.2c-1.8,0-3.6-0.3-5.4-0.9c-1.6-0.5-3-1.4-4.3-2.5c-1.2-1.1-2.2-2.5-2.8-4.1
		c-0.7-1.8-1-3.6-1-5.5c-0.2-3.3,1.1-6.5,3.4-8.9c2.3-2.2,5.6-3.3,10.1-3.3c1.1,0,2.1,0.1,3.2,0.2c1,0.1,1.9,0.3,2.9,0.5v7.6
		c-0.9-0.2-1.8-0.4-2.7-0.5c-0.8-0.1-1.7-0.2-2.5-0.2c-1.6-0.1-3.1,0.3-4.4,1.1c-1.1,0.7-1.6,2-1.6,3.8c-0.1,1.4,0.4,2.8,1.4,3.9
		c1,0.9,2.3,1.3,3.7,1.3h4.2c2.9,0,4.4-1.4,4.4-4.3v-23.2h8.4v23.2c0,3.8-1,6.8-3.1,8.8c-2.1,2.1-5.2,3.1-9.4,3.1H283.9z"/>
</g>
</svg>
