<svg xmlns="http://www.w3.org/2000/svg" width="11.5" height="16" viewBox="0 0 11.5 16">
  <g id="Sustracción_4" data-name="Sustracción 4" transform="translate(0 3206)" fill="#00a263" stroke-linecap="round" stroke-linejoin="bevel">
    <path d="M 8.000099182128906 -3190.499755859375 C 3.864529132843018 -3190.499755859375 0.4999990463256836 -3193.8642578125 0.4999990463256836 -3197.999755859375 C 0.4999990463256836 -3202.135498046875 3.864529132843018 -3205.5 8.000099182128906 -3205.5 C 8.812223434448242 -3205.5 9.601422309875488 -3205.37353515625 10.35670757293701 -3205.123046875 C 7.954116821289063 -3203.564697265625 6.500198841094971 -3200.9208984375 6.500198841094971 -3197.999755859375 C 6.500198841094971 -3195.07861328125 7.954126358032227 -3192.434814453125 10.35671710968018 -3190.87646484375 C 9.601691246032715 -3190.626220703125 8.81259822845459 -3190.499755859375 8.000099182128906 -3190.499755859375 Z" stroke="none"/>
    <path d="M 8.000099182128906 -3190.999755859375 C 8.409847259521484 -3190.999755859375 8.813212394714355 -3191.0341796875 9.208577156066895 -3191.102783203125 C 7.191030502319336 -3192.786376953125 6.000198841094971 -3195.279541015625 6.000198841094971 -3197.999755859375 C 6.000198841094971 -3200.719970703125 7.191163063049316 -3203.213134765625 9.208709716796875 -3204.89697265625 C 8.81320858001709 -3204.965576171875 8.409814834594727 -3205 8.000099182128906 -3205 C 4.140229225158691 -3205 0.9999990463256836 -3201.859619140625 0.9999990463256836 -3197.999755859375 C 0.9999990463256836 -3194.139892578125 4.140229225158691 -3190.999755859375 8.000099182128906 -3190.999755859375 M 8.000099182128906 -3189.999755859375 C 3.588829040527344 -3189.999755859375 -9.5367431640625e-07 -3193.588623046875 -9.5367431640625e-07 -3197.999755859375 C -9.5367431640625e-07 -3202.4111328125 3.588829040527344 -3206 8.000099182128906 -3206 C 9.226839065551758 -3206 10.40437889099121 -3205.729248046875 11.49999904632568 -3205.195556640625 C 8.724418640136719 -3203.843017578125 7.000198841094971 -3201.08642578125 7.000198841094971 -3197.999755859375 C 7.000198841094971 -3194.913818359375 8.724418640136719 -3192.156494140625 11.49999904632568 -3190.803955078125 C 10.40369892120361 -3190.269775390625 9.22615909576416 -3189.999755859375 8.000099182128906 -3189.999755859375 Z" stroke="none" fill="#00a263"/>
  </g>
</svg>
