<svg xmlns="http://www.w3.org/2000/svg" width="176.062" height="141.493" viewBox="0 0 176.062 141.493">
  <g id="manual" transform="translate(-2153.862 -2808.127)">
    <g id="Grupo_112" data-name="Grupo 112" transform="translate(2153.862 2808.127)">
      <g id="Grupo_106" data-name="Grupo 106">
        <path id="Trazado_232" data-name="Trazado 232" d="M2506.79,2808.127H2406.208a1.879,1.879,0,0,0-1.878,1.878v38h-69.845a1.879,1.879,0,0,0-1.878,1.879v57.41a1.879,1.879,0,0,0,1.878,1.878h69.845v38.574a1.879,1.879,0,0,0,1.878,1.878H2506.79a1.875,1.875,0,0,0,1.879-1.878V2810.005A1.874,1.874,0,0,0,2506.79,2808.127Zm-170.427,97.284v-53.653h67.967v39.31a.232.232,0,0,1,.045.143.247.247,0,0,1-.045.143v14.058Zm168.549,40.452h-96.825V2811.884h96.825Z" transform="translate(-2332.607 -2808.127)" fill="#fff"/>
      </g>
      <g id="Grupo_107" data-name="Grupo 107" transform="translate(35.152 47.603)">
        <path id="Trazado_233" data-name="Trazado 233" d="M2398.435,2886.883h0l-7.945-15.4-7.532,14.6a2.091,2.091,0,0,1-.2-.292,7.533,7.533,0,0,1-1.211-4.078,8.167,8.167,0,0,1,6.823-7.787l1.123-2.171c-5.631.331-10.1,4.672-10.1,10a9.491,9.491,0,0,0,2.294,6.152,2.737,2.737,0,0,0,.217.253l-1.969,3.786h2.422l1.162-2.326.355.253a11.512,11.512,0,0,0,12.652,0,10.194,10.194,0,0,0,2.264-2.083Zm-2.826.973a9.162,9.162,0,0,1-10.761,0l-.345-.282,6.006-11.952,3.515,6.628h-5.258v1.626h6.115l1.663,3.134a8.285,8.285,0,0,1-.955.857Z" transform="translate(-2379.393 -2871.484)" fill="#fff"/>
      </g>
      <g id="Grupo_108" data-name="Grupo 108" transform="translate(25.623 77.298)">
        <line id="Línea_63" data-name="Línea 63" x2="37.976" transform="translate(0.274 0.274)" fill="none"/>
        <path id="Trazado_234" data-name="Trazado 234" d="M2404.96,2911.555h-37.977a.274.274,0,0,1,0-.548h37.977a.274.274,0,1,1,0,.548Z" transform="translate(-2366.71 -2911.007)" fill="#fff"/>
      </g>
      <g id="Grupo_109" data-name="Grupo 109" transform="translate(20.394 89.816)">
        <line id="Línea_64" data-name="Línea 64" x2="16.955" transform="translate(0.274 0.273)" fill="none"/>
        <path id="Trazado_235" data-name="Trazado 235" d="M2376.98,2928.215h-16.955a.274.274,0,1,1,0-.547h16.955a.274.274,0,1,1,0,.547Z" transform="translate(-2359.751 -2927.668)" fill="#fff"/>
      </g>
      <g id="Grupo_110" data-name="Grupo 110" transform="translate(51.283 89.816)">
        <path id="Trazado_236" data-name="Trazado 236" d="M2418.089,2928.215h-16.954a.274.274,0,0,1,0-.547h16.954a.274.274,0,1,1,0,.547Z" transform="translate(-2400.862 -2927.668)" fill="#fff"/>
      </g>
      <g id="Grupo_111" data-name="Grupo 111" transform="translate(19.58 82.805)">
        <path id="Trazado_237" data-name="Trazado 237" d="M2409.27,2918.615a.246.246,0,0,1-.045.143.261.261,0,0,1-.225.128h-50.062a.269.269,0,0,1-.271-.271.276.276,0,0,1,.271-.278H2409a.253.253,0,0,1,.225.135A.23.23,0,0,1,2409.27,2918.615Z" transform="translate(-2358.667 -2918.337)" fill="#fff"/>
      </g>
    </g>
    <g id="Grupo_114" data-name="Grupo 114" transform="translate(2238.931 2845.475)" opacity="0.1" style="isolation: isolate">
      <path id="Trazado_239" data-name="Trazado 239" d="M2523.7,2921.007c0-.053.069-.121.092-.167l-32.541-63-30.809,59.573a8.087,8.087,0,0,1-.766-1.212,30.8,30.8,0,0,1-5.011-16.7c0-15.755,11.984-28.889,27.944-32.018l4.6-8.885c-23.063,1.356-41.375,19.118-41.375,40.9a38.859,38.859,0,0,0,9.379,25.192c.3.349.6.7.919,1.03l-7.991,15.475h9.915l4.758-9.483c.482.348.966.7,1.471,1.022a47.011,47.011,0,0,0,51.758-.137,42.142,42.142,0,0,0,9.294-8.506Zm-11.57,4.015a37.408,37.408,0,0,1-44.035.121c-.482-.356-.965-.757-1.424-1.121l24.58-48.969,14.4,27.162h-21.523v6.635h25.017l6.827,12.877A30.95,30.95,0,0,1,2512.131,2925.022Z" transform="translate(-2445.83 -2857.836)" fill="#fff"/>
    </g>
    <g id="Grupo_116" data-name="Grupo 116" transform="translate(2268.15 2816.817)">
      <path id="Trazado_241" data-name="Trazado 241" d="M2505.362,2836.473v-.044l-8.611-16.735-8.177,15.826c-.071-.11-.146-.214-.211-.323a8.153,8.153,0,0,1-1.317-4.437,8.861,8.861,0,0,1,7.409-8.492l1.221-2.356c-6.117.358-10.957,5.069-10.957,10.847a10.311,10.311,0,0,0,2.512,6.688c.076.09.156.184.242.273l-2.121,4.109h2.628l1.262-2.519c.131.094.257.189.392.273a12.474,12.474,0,0,0,13.682-.015,11.334,11.334,0,0,0,2.468-2.256Zm-3.051,1.064a9.934,9.934,0,0,1-11.686.035c-.125-.095-.257-.194-.377-.3l6.534-12.994,3.82,7.205h-5.745v1.763h6.64l1.82,3.409A7.8,7.8,0,0,1,2502.311,2837.536Z" transform="translate(-2484.719 -2819.693)" fill="#fff"/>
    </g>
  </g>
</svg>
