<svg xmlns="http://www.w3.org/2000/svg" width="148.433" height="148.667" viewBox="0 0 148.433 148.667">
  <path id="merchandasing" d="M2486.21,3205.925v-.117a52.649,52.649,0,1,0-52.789,52.649,48.078,48.078,0,1,0,52.789-52.532Zm17.123,36.236a3.07,3.07,0,0,0,1.6-.453l8.351-5.182a36.355,36.355,0,0,1-61.882,37.953l6.829-4.238a2.641,2.641,0,0,0,1.233-2.544l42.082-26.114A3.087,3.087,0,0,0,2503.333,3242.161Zm-1.592-5.6a3,3,0,0,0-1.381,3.09l-42.089,26.122a2.621,2.621,0,0,0-2.833-.031l-6.735,4.184a36.106,36.106,0,0,1-3.637-12.729,52.815,52.815,0,0,0,39.818-39.624,36.351,36.351,0,0,1,25.083,13.885Zm-68.179,18c-.125,0-.242,0-.367-.008a48.744,48.744,0,1,1,49.114-48.864v.125c0,1.272-.047,2.528-.14,3.778a48.473,48.473,0,0,1-.741,5.463c-.149.788-.32,1.576-.515,2.349a48.912,48.912,0,0,1-36,35.823c-.772.187-1.561.351-2.349.5a48.39,48.39,0,0,1-5.463.71C2435.926,3254.515,2434.747,3254.554,2433.561,3254.554Zm8.718,19.956a43.935,43.935,0,0,1-4.956-16.194,49.528,49.528,0,0,0,5.432-.671,38.393,38.393,0,0,0,3.949,13.517l-3.364,2.084A2.638,2.638,0,0,0,2442.279,3274.51Zm38.983,23.414a44.126,44.126,0,0,1-36.814-19.8,1.9,1.9,0,0,0,.3.023,2.581,2.581,0,0,0,1.389-.4l3.286-2.037a38.689,38.689,0,0,0,65.807-40.505,3.022,3.022,0,0,0-3.223-4.94,38.655,38.655,0,0,0-26.652-15,48.091,48.091,0,0,0,.7-5.439,44.178,44.178,0,0,1-4.792,88.1Zm-27.342-83.537.053-.083-16.741-32.786-15.848,30.984c-.136-.212-.28-.416-.409-.636a16.179,16.179,0,0,1-2.558-8.7c0-8.2,6.16-15.031,14.38-16.65l2.361-4.617c-11.86.7-21.274,9.945-21.274,21.275a20.346,20.346,0,0,0,4.828,13.107c.152.182.3.364.469.538l-4.117,8.06h5.1l2.444-4.935c.25.182.5.363.757.53a23.969,23.969,0,0,0,26.625-.068,21.824,21.824,0,0,0,4.776-4.428Zm-5.949,2.089a19.042,19.042,0,0,1-22.645.06,8.777,8.777,0,0,1-.756-.583l12.638-25.475,7.41,14.13h-11.05v3.451h12.866l3.512,6.691A15.442,15.442,0,0,1,2447.971,3216.476Z" transform="translate(-2380.912 -3153.159)" fill="#fff"/>
</svg>
