<svg xmlns="http://www.w3.org/2000/svg" width="161.795" height="145.942" viewBox="0 0 161.795 145.942">
  <g id="pack" transform="translate(-1613.139 -2818.054)">
    <g id="Grupo_105" data-name="Grupo 105" transform="translate(1613.139 2818.054)">
      <g id="Grupo_104" data-name="Grupo 104" transform="translate(28.557 55.73)">
        <line id="Línea_62" data-name="Línea 62" x2="32.675" fill="none"/>
      </g>
      <path id="Trazado_230" data-name="Trazado 230" d="M1645.87,2872.683h25.194m0-.27h-25.2a.267.267,0,0,0-.268.268.273.273,0,0,0,.268.275h25.2a.273.273,0,0,0,.268-.275A.267.267,0,0,0,1671.067,2872.413Zm-28.665,8.573h11.248m0-.273H1642.4a.272.272,0,0,0-.267.274.267.267,0,0,0,.267.268h11.25a.267.267,0,0,0,.268-.268A.272.272,0,0,0,1653.65,2880.714Zm9.242.273h11.248m0-.273h-11.25a.279.279,0,0,0-.275.274.273.273,0,0,0,.275.268h11.25a.267.267,0,0,0,.267-.268A.272.272,0,0,0,1674.143,2880.714Zm100.705,53.692a3.8,3.8,0,0,1-2.556,2.192c-.461.126-.921.26-1.375.386-.713.208-1.36.386-1.984.557.007,3.9.007,7.78.007,11.659v4.288c-.007,1.025-.007,2.058.007,3.068a1.653,1.653,0,0,1-1.271,1.7s-23.844,6.718-26.884,7.572a2.423,2.423,0,0,1-.639.082,3.352,3.352,0,0,1-.951-.149q-6.788-2-13.575-4l-6.457-1.91-1.694-.49c-1.263-.372-2.534-.75-3.8-1.115a1.8,1.8,0,0,1-1.419-1.872q.011-4.369.007-8.731v-.46q0-4.559.015-9.125c-1.122-.3-2.363-.646-3.871-1.085a3.594,3.594,0,0,1-2.125-5.476c1.873-3,3.782-6.056,5.84-9.333-1.323-2.162-2.623-4.317-3.923-6.472h-16.28v36.476a2.331,2.331,0,0,1-2.333,2.326h-35.109v8.6h6.138a3.448,3.448,0,0,1,3.44,3.448h-22.9a3.45,3.45,0,0,1,3.448-3.448h6.138v-8.6h-35.117a2.325,2.325,0,0,1-2.326-2.326v-58.589a2.324,2.324,0,0,1,2.326-2.325H1674.6v-2.393h-45.72a1.859,1.859,0,0,1-1.858-1.858v-38.089a1.858,1.858,0,0,1,1.858-1.857h45.72v-24.6a1.858,1.858,0,0,1,1.858-1.857h66.733a1.858,1.858,0,0,1,1.858,1.857v81.327c.178-.29.364-.579.542-.869a3.573,3.573,0,0,1,3.1-1.835,4.421,4.421,0,0,1,1.219.179l21.779,6.256a3.637,3.637,0,0,1,2.288,5.625l-.171.3c-1.6,2.809-3.24,5.684-4.86,8.5,1.612,2.637,3.18,5.223,4.518,7.43l1.04,1.717A3.678,3.678,0,0,1,1774.848,2934.406Zm-31.438-21.147.074.022,22.552,6.458,1.189-2.081c1.248-2.177,2.474-4.339,3.7-6.5a.437.437,0,0,0,.03-.052.611.611,0,0,1-.082-.03l-21.913-6.308q-.134-.034-.2-.044c-.03.037-.074.1-.134.193-1.456,2.325-2.92,4.659-4.369,6.985Zm-68.806-28.11v-8.56a.11.11,0,0,1-.067.015h-32.679a.268.268,0,0,1,0-.535h32.679a.112.112,0,0,1,.067.015v-25.308h-43.862v34.373Zm13.605,55.833h-71.192v9.8h71.192Zm0-46.01h-71.192v42.294h71.192Zm20.85,11.9c.126-.037.275-.074.438-.118l13.62-3.834,7.616-2.1a4.61,4.61,0,0,1,.854-.156,5.687,5.687,0,0,1,.624-.008c.015-.007.022-.007.03,0,.1.008.208.022.312.037a.011.011,0,0,1,.015,0,2.891,2.891,0,0,1,1.9.914c.617.75,4.035,5.967,6.138,9.2l.728-1.285v-85.206h-63.018v66.934h11.272a2.339,2.339,0,0,1,1.806.854,2.285,2.285,0,0,1,.527,1.471v18.4h13.954a3.8,3.8,0,0,1-.015-2.675,2.713,2.713,0,0,1,.372-.624A4.4,4.4,0,0,1,1709.059,2906.876Zm5.907,13,18.881-5.469c1.2-.349,3.886-1.137,3.886-1.137l-3.314-5.135-.007-.007-.491-.75-1.895-2.943a1.37,1.37,0,0,0-.1-.148,1.349,1.349,0,0,0-.238.059l-22.128,6.078a1.416,1.416,0,0,0-.23.074.765.765,0,0,0,.089.171.189.189,0,0,0,.03.052l1.731,2.861.877,1.457C1713.026,2916.639,1714.007,2918.267,1714.966,2919.879Zm16.488,19.795c.112.03.193.045.238.052a1.055,1.055,0,0,0,.126-.186l5.513-9.118-22.195-6.226-1.011,1.62q-2.385,3.812-4.763,7.631c0,.007-.007.007-.007.015a.281.281,0,0,0,.1.037Zm6.821-3.8-.111.186c-1.092,1.805-2.177,3.6-3.269,5.409a3.6,3.6,0,0,1-3.121,1.9,4.715,4.715,0,0,1-1.211-.178l-14.638-4.109v16.027l22.351,6.6Zm15.21-12.112,6.851-1.88q-9.864-2.831-19.728-5.632a.6.6,0,0,0-.082.007q-8.326,2.385-16.629,4.8l-2.8.817q9.5,2.775,19,5.535a.958.958,0,0,0,.149-.014Q1746.854,2925.593,1753.485,2923.765Zm11.852,31.379c-.015-4.555-.015-9.191-.015-13.679v-2.883l-15.931,4.555a4.728,4.728,0,0,1-1.211.171,3.563,3.563,0,0,1-3.166-1.94l-3.046-5.231v25.6l5.394-1.524Q1756.346,2957.682,1765.337,2955.144Zm6.1-22.1a.989.989,0,0,0-.089-.178l-2.853-4.7q-1.237-2.028-2.467-4.072l-11.918,3.277-4.666,1.278c-1.293.357-4.77,1.308-6.576,1.806l5.209,8.961a2.547,2.547,0,0,0,.171.26c.059-.015.141-.03.275-.067q11.369-3.244,22.752-6.5A1.6,1.6,0,0,0,1771.438,2933.046Zm-52.957-94.367a7.626,7.626,0,0,1-1.635,1.494,8.273,8.273,0,0,1-9.08.008c-.089-.052-.171-.119-.26-.178l-.832,1.672h-1.746l1.4-2.727c-.052-.06-.1-.127-.156-.178a6.851,6.851,0,0,1-1.664-4.443,7.452,7.452,0,0,1,7.267-7.193l-.81,1.561a5.88,5.88,0,0,0-4.919,5.632,5.419,5.419,0,0,0,.877,2.95c.045.067.089.141.141.208l5.424-10.5,5.714,11.108v.03Zm-1.635-.438-1.211-2.259h-4.4v-1.174h3.812l-2.534-4.778-4.339,8.619c.082.067.171.134.253.2a6.58,6.58,0,0,0,7.75-.03A4.915,4.915,0,0,0,1716.846,2838.24Zm-51.969,25.375a6.631,6.631,0,0,1-1.5,1.382,7.626,7.626,0,0,1-8.4,0l-.23-.163-.773,1.538h-1.605l1.3-2.511c-.045-.052-.1-.1-.141-.164a6.309,6.309,0,0,1-1.523-4.087,6.873,6.873,0,0,1,6.7-6.627l-.743,1.441a5.416,5.416,0,0,0-4.525,5.164,5.006,5.006,0,0,0,.8,2.7,1.1,1.1,0,0,0,.134.193l4.993-9.682,5.268,10.209Zm-1.486-.513-1.107-2.081h-4.057v-1.077h3.492l-2.333-4.4-3.983,7.929.223.186a6.078,6.078,0,0,0,7.141,0A6.354,6.354,0,0,0,1663.391,2863.1Z" transform="translate(-1613.302 -2820.608)" fill="#fff"/>
    </g>
    <g id="Grupo_115" data-name="Grupo 115" transform="translate(1682.891 2843.653)" opacity="0.1" style="isolation: isolate">
      <path id="Trazado_240" data-name="Trazado 240" d="M1759.624,2897.609c0-.036.047-.082.062-.113l-21.918-42.437-20.752,40.126a5.534,5.534,0,0,1-.516-.816,20.748,20.748,0,0,1-3.375-11.25c0-10.612,8.072-19.459,18.821-21.566l3.1-5.984c-15.535.913-27.869,12.877-27.869,27.55a26.175,26.175,0,0,0,6.317,16.968c.2.235.4.475.619.694l-1.2,2.318,2.493,8.106,3.2-6.388c.325.235.65.47.991.689a31.663,31.663,0,0,0,34.861-.092,28.372,28.372,0,0,0,6.26-5.729Zm-7.792,2.7a25.2,25.2,0,0,1-29.66.081c-.325-.239-.65-.51-.959-.755l16.556-32.983,9.7,18.3h-14.5v4.469h16.85l4.6,8.674A20.868,20.868,0,0,1,1751.831,2900.313Z" transform="translate(-1707.174 -2855.059)" fill="#fff"/>
    </g>
  </g>
</svg>
