<svg xmlns="http://www.w3.org/2000/svg" width="131.677" height="123.581" viewBox="0 0 131.677 123.581">
  <path id="packaging" d="M2052.216,3311.6a4.977,4.977,0,0,1-1.349-.211q-14.369-4.214-28.727-8.459l-10.3-3.04c-3.51-1.038-7.139-2.111-10.716-3.135a1.776,1.776,0,0,1-1.49-1.958q.025-8.954.022-17.91,0-9.24.024-18.482c0-.564-.068-.653-.621-.8-2.383-.624-4.98-1.348-8.173-2.276a5.512,5.512,0,0,1-3.7-3.253,5.405,5.405,0,0,1,.561-4.805c3.723-5.995,7.541-12.1,11.672-18.655a.64.64,0,0,0,0-.869q-4.9-8.052-9.77-16.125l-1.917-3.171a5.629,5.629,0,0,1-.567-5,5.5,5.5,0,0,1,3.812-3.215q21.675-5.963,43.351-11.922a7.387,7.387,0,0,1,1.969-.29,5.312,5.312,0,0,1,4.6,2.811l12.13,18.77,7.118-11.384q2.065-3.3,4.139-6.6a5.222,5.222,0,0,1,4.547-2.74,6.817,6.817,0,0,1,1.879.284l2.835.813q19.787,5.678,39.573,11.364a5.334,5.334,0,0,1,3.434,8.391l-.342.6c-3.121,5.486-6.348,11.16-9.558,16.72a1.116,1.116,0,0,0,0,1.394c3.991,6.5,7.945,13.038,10.942,18.006a5.448,5.448,0,0,1,.552,4.893,5.616,5.616,0,0,1-3.827,3.231c-.9.252-1.8.511-2.7.771-1.492.43-3.034.875-4.566,1.276-.494.128-.562.221-.56.761q.03,11.718.019,23.437l0,8.2c0,2.051-.008,4.1.015,6.153a1.459,1.459,0,0,1-1.208,1.6q-10.4,2.927-20.8,5.86-15.763,4.447-31.531,8.876A2.86,2.86,0,0,1,2052.216,3311.6Zm1.78-4.068,11.215-3.164q18.517-5.229,37.042-10.438c.65-.183.748-.3.746-.919-.03-9.256-.027-18.668-.025-27.769v-7.422c-.052.011-.1.025-.151.038q-2.613.742-5.226,1.491l-8.153,2.328q-9.866,2.817-19.734,5.63a6.93,6.93,0,0,1-1.893.284,5.206,5.206,0,0,1-4.63-2.912q-1.254-2.141-2.5-4.285l-6.693-11.5Zm-3.691-.023v-58.916l-3.22,5.328q-3.305,5.471-6.616,10.938a5.239,5.239,0,0,1-4.617,2.849,6.916,6.916,0,0,1-1.853-.273q-8.361-2.344-16.722-4.694l-12.317-3.459c-.531-.149-1.065-.288-1.617-.434l-.07-.019v34.806Zm-50.26-73.168q-4.648,7.429-9.279,14.869a1.758,1.758,0,0,0-.246,1.587,2.035,2.035,0,0,0,1.438,1.125l42.836,12.023a4,4,0,0,0,1.049.175h0c.571,0,1.022-.2,1.639-1.219l8.249-13.631c.911-1.507,1.819-3.016,2.741-4.55l.924-1.535-46.689-13.1Zm66.076,28.281c.682,1.175,1.126,1.4,1.708,1.4h0a4.355,4.355,0,0,0,1.143-.2q22.154-6.328,44.306-12.669a2.287,2.287,0,0,0,1.569-1.126,2.328,2.328,0,0,0-.4-1.923l-3.419-5.631q-3.712-6.11-7.407-12.23c-.179-.3-.264-.3-.338-.3a1.321,1.321,0,0,0-.333.059q-12.011,3.311-24.028,6.6l-9.1,2.5c-3.469.952-14.99,4.123-14.99,4.123S2063.29,3257.751,2066.12,3262.621Zm-56.493-34.8q21.039,6.149,42.085,12.274a1.392,1.392,0,0,0,.385.046,2.835,2.835,0,0,0,.732-.106q19.063-5.207,38.119-10.445l7.058-1.939-1.116-.32q-21.671-6.2-43.348-12.383a1.663,1.663,0,0,0-.453-.056,2.43,2.43,0,0,0-.659.093q-16.335,4.7-32.657,9.44l-1.049.3c-2.547.738-5.094,1.479-7.689,2.234l-2.175.633Zm26.7-36.228a4.148,4.148,0,0,0-1.062.178l-43.086,11.834a2.483,2.483,0,0,0-1.706,1.151,2.532,2.532,0,0,0,.457,2.043l2.991,4.946c2.626,4.34,5.342,8.826,7.98,13.261.343.575.546.622.758.622h0a2.1,2.1,0,0,0,.571-.1q13.728-4.012,27.472-7.973l9.721-2.812c2.353-.682,4.7-1.371,7.087-2.069l2.729-.8-1.655-2.565q-5.362-8.307-10.729-16.613C2037.258,3191.773,2036.857,3191.6,2036.327,3191.6Zm67.114,33.9,2.717-4.756c2.519-4.408,5.015-8.776,7.494-13.152a1.854,1.854,0,0,0,.215-1.629,1.988,1.988,0,0,0-1.368-1.062q-21.324-6.147-42.653-12.277a3.789,3.789,0,0,0-1.023-.178c-.53,0-.961.2-1.6,1.21q-5.651,9.016-11.287,18.043l-.107.173Zm-50.388-14.805c2.163-3.46,4.252-6.8,6.343-10.144q2.695-4.307,5.4-8.611a4.69,4.69,0,0,1,5.759-2.2q21.205,6.086,42.407,12.179c3.752,1.079,5,4.145,3.082,7.524q-4.932,8.668-9.9,17.317a1.689,1.689,0,0,0,0,2q5.511,8.975,10.94,18a4.675,4.675,0,0,1-2.926,7.243c-2.42.675-4.825,1.409-7.255,2.044a1.143,1.143,0,0,0-1.006,1.339q.038,14.651.018,29.3c0,2.831-.019,5.661.013,8.491a.876.876,0,0,1-.774,1.018q-26.167,7.362-52.328,14.736a3.446,3.446,0,0,1-1.792-.111q-18.044-5.29-36.073-10.627c-4.554-1.343-9.1-2.7-13.667-4.008a1.2,1.2,0,0,1-1.058-1.384c.032-12.131.011-24.262.046-36.392a1.176,1.176,0,0,0-1.065-1.375c-2.73-.717-5.448-1.484-8.158-2.274a4.662,4.662,0,0,1-2.8-7.173q5.8-9.345,11.669-18.652a1.212,1.212,0,0,0,.009-1.5q-5.867-9.633-11.687-19.3a4.72,4.72,0,0,1,2.9-7.339q21.674-5.963,43.351-11.921a4.766,4.766,0,0,1,5.911,2.27q6.025,9.317,12.044,18.637C2052.613,3210.047,2052.791,3210.3,2053.053,3210.687Zm.521,36.3-.174.043v61.286l4.487-1.264q22.26-6.284,44.525-12.552c.847-.237,1.184-.547,1.18-1.493-.038-11.633-.025-23.267-.025-34.9v-1.018c-.385.082-.651.124-.907.2q-3.582,1.018-7.161,2.044-12.977,3.7-25.954,7.406a4.684,4.684,0,0,1-5.846-2.357q-1.7-2.9-3.379-5.8Zm-50.9,47.091L2050.9,3308.3v-61.8c-.4.645-.684,1.087-.956,1.536q-4.992,8.254-9.984,16.51a4.708,4.708,0,0,1-5.8,2.312q-14.521-4.072-29.039-8.153c-.792-.222-1.589-.424-2.442-.652Zm51.256-51.227.333.573q5.67,9.747,11.339,19.5c.958,1.649,1.718,1.986,3.527,1.469q22.156-6.328,44.307-12.669c2.082-.6,2.645-2.069,1.517-3.929-3.609-5.953-7.236-11.894-10.826-17.859a.992.992,0,0,0-1.34-.506q-16.557,4.565-33.122,9.1C2064.465,3239.952,2059.261,3241.386,2053.934,3242.851Zm-2.8-30.618c-.141-.251-.209-.388-.291-.515q-6.244-9.673-12.49-19.344c-.877-1.355-1.629-1.617-3.247-1.172l-43.086,11.834c-2.256.62-2.821,2.054-1.6,4.075,3.661,6.064,7.347,12.115,10.969,18.2a1.46,1.46,0,0,0,2.007.787q18.585-5.431,37.191-10.784C2044.07,3214.307,2047.547,3213.282,2051.137,3212.233Zm-48.632,17.178a1.451,1.451,0,0,0-.2.189q-6.03,9.645-12.048,19.3c-.958,1.542-.262,3.093,1.536,3.6q21.419,6.011,42.837,12.023c1.653.464,2.478.147,3.357-1.307q4.125-6.816,8.249-13.631c1.345-2.224,2.682-4.452,4.069-6.754Zm4.36-1.85c.321.14.43.2.547.236q22.064,6.448,44.135,12.873a2.8,2.8,0,0,0,1.439-.057q21.775-5.948,43.539-11.932c1.113-.3,2.225-.614,3.592-.992-.466-.16-.656-.237-.852-.293q-22.778-6.518-45.561-13.015a2.754,2.754,0,0,0-1.439.037q-16.861,4.85-33.708,9.744C2014.714,3225.275,2010.874,3226.395,2006.864,3227.561Zm96.861-1.369c3.525-6.174,7-12.237,10.445-18.315a2.281,2.281,0,0,0-1.506-3.555q-21.324-6.147-42.652-12.278c-1.615-.464-2.38-.16-3.288,1.288q-5.691,9.082-11.369,18.174c-.125.2-.219.421-.379.731Z" transform="translate(-1986.818 -3188.017)" fill="#fff"/>
</svg>
