<svg xmlns="http://www.w3.org/2000/svg" width="16.294" height="15.148" viewBox="0 0 16.294 15.148"><path d="M769.711,388.568a2.826,2.826,0,0,0-2.405-.542c-.625.256-1.023,1.234-1.428,1.733a.6.6,0,0,1-.775.167,10.9,10.9,0,0,1-5.436-4.655.668.668,0,0,1,.085-.911,3.665,3.665,0,0,0,.987-1.6,3.507,3.507,0,0,0-.441-1.9,4.5,4.5,0,0,0-1.4-2.111,1.92,1.92,0,0,0-2.084.309,4.234,4.234,0,0,0-1.467,3.353,4.767,4.767,0,0,0,.132,1.064,8.842,8.842,0,0,0,1.02,2.352,18.819,18.819,0,0,0,1.066,1.62,16.439,16.439,0,0,0,4.622,4.29,13.972,13.972,0,0,0,2.882,1.371,6.405,6.405,0,0,0,3.354.529,4.064,4.064,0,0,0,3.042-2.263,1.962,1.962,0,0,0,.14-1.155C771.431,389.426,770.354,388.953,769.711,388.568Z" transform="translate(-755.346 -378.56)" fill="#fff" fill-rule="evenodd"/></svg>