<svg xmlns="http://www.w3.org/2000/svg" width="14.509" height="18.661" viewBox="0 0 14.509 18.661"><g transform="translate(-508.552 -367.914)"><path d="M515.806,386.575h0a.647.647,0,0,1-.475-.207c-.277-.3-6.779-7.34-6.779-11.2a7.254,7.254,0,1,1,14.509,0c0,3.859-6.5,10.9-6.779,11.2A.647.647,0,0,1,515.806,386.575Zm0-17.363a5.964,5.964,0,0,0-5.957,5.957c0,2.561,3.936,7.519,5.957,9.792,2.02-2.273,5.957-7.231,5.957-9.792A5.963,5.963,0,0,0,515.806,369.212Z" fill="#fff"/><path d="M519.879,381.867a3.266,3.266,0,1,1,3.266-3.266A3.27,3.27,0,0,1,519.879,381.867Zm0-5.235a1.968,1.968,0,1,0,1.968,1.969A1.971,1.971,0,0,0,519.879,376.632Z" transform="translate(-4.073 -3.749)" fill="#fff"/></g></svg>