<svg id="youtube" xmlns="http://www.w3.org/2000/svg" width="39.041" height="27.328" viewBox="0 0 39.041 27.328">
  <defs>
    <style>
      .cls-1 {
        fill: #00a263;
      }
    </style>
  </defs>
  <path id="Trazado_100" data-name="Trazado 100" class="cls-1" d="M856.879,443.146a8.568,8.568,0,0,0-8.569-8.567H826.4a8.567,8.567,0,0,0-8.567,8.567V453.34a8.567,8.567,0,0,0,8.567,8.567h21.9a8.568,8.568,0,0,0,8.569-8.567Zm-12.885,5.863-9.823,4.858c-.385.21-1.694-.071-1.694-.508v-9.976c0-.442,1.321-.722,1.706-.5l9.4,5.116C843.98,448.222,844.393,448.79,843.994,449.008Z" transform="translate(-817.838 -434.579)"/>
</svg>
